<svg width="371" height="379" viewBox="0 0 371 379" fill="none" xmlns="http://www.w3.org/2000/svg">
<g clip-path="url(#clip0)">
<path d="M371 48.4844H22.9061V259.536H371V48.4844Z" fill="#EAFBFF"/>
<path d="M82.5375 225.805C98.8048 225.805 111.992 223.862 111.992 221.464C111.992 219.067 98.8048 217.124 82.5375 217.124C66.2702 217.124 53.083 219.067 53.083 221.464C53.083 223.862 66.2702 225.805 82.5375 225.805Z" fill="#474747"/>
<path d="M87.2066 62.5081H77.8683V221.464H87.2066V62.5081Z" fill="#474747"/>
<path d="M82.5375 77.87C89.0855 77.87 94.3937 72.9355 94.3937 66.8486C94.3937 60.7616 89.0855 55.8271 82.5375 55.8271C75.9896 55.8271 70.6814 60.7616 70.6814 66.8486C70.6814 72.9355 75.9896 77.87 82.5375 77.87Z" fill="#474747"/>
<path d="M108.762 76.8677C108.762 76.8677 104.093 86.2201 100.502 105.577L80.0249 84.551C80.0249 84.551 85.5264 82.4879 91.3681 80.1717C96.8672 77.9913 102.784 76.8674 108.762 76.8677Z" fill="#C4FFA0"/>
<path d="M57.035 76.8677C57.035 76.8677 63.4996 94.5652 63.8399 101.577V109.927H101.56V101.246C96.9534 95.8332 91.7537 90.8805 86.0446 86.4682C77.8528 80.2548 67.6024 76.8648 57.0298 76.8725L57.035 76.8677Z" fill="#C4FFA0"/>
<path d="M63.8555 109.927C63.8555 109.927 54.156 120.632 53.4389 133.284C52.7218 145.935 59.5476 183.71 59.5476 183.71C59.5476 183.71 82.5375 191.388 105.527 183.71C105.527 183.71 112.714 144.972 111.992 132.617C111.27 120.262 97.4453 104.063 97.4453 104.063L63.8555 109.927Z" fill="#C4FFA0"/>
<path opacity="0.08" d="M87.3899 100.409C87.3899 100.409 92.0591 100.073 94.9328 101.411C97.8065 102.75 101.581 102.871 101.581 102.871" fill="black"/>
<path opacity="0.08" d="M87.3899 102.399C87.3899 102.399 92.0591 102.064 94.9328 103.402C97.8065 104.74 101.581 104.861 101.581 104.861" fill="black"/>
<path opacity="0.08" d="M87.3899 105.085C87.3899 105.085 92.0591 104.75 94.9328 106.088C97.8065 107.426 101.581 107.548 101.581 107.548" fill="black"/>
<path opacity="0.08" d="M65.8343 110.097C65.8343 110.097 62.9606 117.109 63.3217 118.111C63.6829 119.114 60.448 125.123 60.448 125.123" fill="black"/>
<path opacity="0.08" d="M67.9908 114.438C67.9908 114.438 65.117 121.45 65.4782 122.452C65.8394 123.454 62.6045 129.464 62.6045 129.464" fill="black"/>
<path opacity="0.08" d="M100.319 110.097C100.319 110.097 103.193 117.109 102.832 118.111C102.47 119.114 105.705 125.123 105.705 125.123" fill="black"/>
<path opacity="0.08" d="M98.1625 114.438C98.1625 114.438 101.036 121.45 100.675 122.452C100.314 123.454 103.549 129.464 103.549 129.464" fill="black"/>
<path d="M194.974 246.841C211.242 246.841 224.429 244.897 224.429 242.5C224.429 240.103 211.242 238.16 194.974 238.16C178.707 238.16 165.52 240.103 165.52 242.5C165.52 244.897 178.707 246.841 194.974 246.841Z" fill="#474747"/>
<path d="M199.644 83.5486H190.305V242.505H199.644V83.5486Z" fill="#474747"/>
<path d="M194.974 98.9105C201.522 98.9105 206.831 93.976 206.831 87.8891C206.831 81.8021 201.522 76.8677 194.974 76.8677C188.426 76.8677 183.118 81.8021 183.118 87.8891C183.118 93.976 188.426 98.9105 194.974 98.9105Z" fill="#474747"/>
<path d="M176.837 138.816L134.087 193.914L145.943 198.259C145.943 198.259 143.786 200.264 145.226 201.266C145.226 201.266 150.256 205.606 163.547 206.273C163.547 206.273 167.499 201.266 175.403 207.942C183.307 214.618 193.006 209.28 193.006 209.28C193.006 209.28 200.188 203.611 208.448 208.964C216.708 214.317 227.13 206.293 227.13 206.293C227.13 206.293 232.516 198.945 244.011 201.616C255.506 204.288 255.527 194.269 255.527 194.269L212.081 137.498L176.837 138.816Z" fill="#F6BFFF"/>
<g opacity="0.08">
<path opacity="0.08" d="M244.828 201.762C247.968 202.351 250.167 201.957 251.732 201.096C249.406 200.859 247.052 201.086 244.828 201.762Z" fill="white"/>
<path opacity="0.08" d="M155.998 201.261C154.564 200.259 156.71 198.259 156.71 198.259L144.854 193.918L176.826 138.816L134.087 193.913L145.943 198.259C145.943 198.259 143.786 200.264 145.226 201.266C145.226 201.266 150.256 205.606 163.547 206.273C163.994 205.766 164.55 205.352 165.18 205.056C158.652 203.543 155.998 201.261 155.998 201.261Z" fill="white"/>
<path opacity="0.08" d="M186.175 207.937C178.271 201.256 174.319 206.268 174.319 206.268C173.874 206.268 173.434 206.219 173.01 206.19C173.852 206.718 174.65 207.303 175.397 207.942C180.721 212.443 186.856 211.484 190.295 210.375C188.777 209.795 187.383 208.97 186.175 207.937Z" fill="white"/>
<path opacity="0.08" d="M219.226 208.964C213.991 205.558 209.186 206.618 206.37 207.835C207.099 208.158 207.8 208.536 208.464 208.964C212.494 211.567 217.033 210.998 220.629 209.728C220.142 209.505 219.673 209.25 219.226 208.964Z" fill="white"/>
</g>
<path d="M215.635 143.322H175.397C175.397 143.322 172.885 114.939 169.289 110.598C170.764 110.004 172.276 109.49 173.817 109.061C176.223 108.365 178.67 107.795 181.145 107.353C189.679 105.822 198.441 105.748 207.003 107.134C209.5 107.543 211.971 108.079 214.405 108.74C216.338 109.262 218.299 109.882 220.288 110.598C220.288 110.598 213.117 137.313 215.635 143.322Z" fill="#F6BFFF"/>
<path opacity="0.08" d="M186.107 143.322H180.758C180.69 137.04 175.738 116.729 173.817 109.056C176.223 108.36 178.67 107.79 181.145 107.348C181.558 115.43 185.123 137.381 186.107 143.322Z" fill="white"/>
<path opacity="0.08" d="M214.421 108.725C212.562 116.136 207.469 136.947 207.401 143.307H202.052C203.041 137.308 206.663 115.012 207.014 107.119C209.513 107.528 211.985 108.064 214.421 108.725Z" fill="white"/>
<path d="M306.699 226.807C322.967 226.807 336.154 224.864 336.154 222.467C336.154 220.07 322.967 218.126 306.699 218.126C290.432 218.126 277.245 220.07 277.245 222.467C277.245 224.864 290.432 226.807 306.699 226.807Z" fill="#474747"/>
<path d="M311.363 63.5105H302.025V222.467H311.363V63.5105Z" fill="#474747"/>
<path d="M306.7 78.8724C313.247 78.8724 318.556 73.9379 318.556 67.851C318.556 61.764 313.247 56.8296 306.7 56.8296C300.152 56.8296 294.843 61.764 294.843 67.851C294.843 73.9379 300.152 78.8724 306.7 78.8724Z" fill="#474747"/>
<path d="M327.282 120.491C326.941 119.416 326.601 118.403 326.271 117.493V105.085L330.585 88.0544C320.524 74.3616 306.506 88.0544 306.506 88.0544C291.059 75.364 283.155 88.0544 283.155 88.0544C284.233 90.3901 286.746 105.085 286.746 105.085V119.197C281.03 130.325 279.318 142.694 280.103 155.088L282.794 197.602C282.794 197.602 308.657 206.954 330.213 197.602L332.369 161.954C333.242 147.964 331.521 133.939 327.282 120.491Z" fill="#ADB1FF"/>
<g opacity="0.08">
<path opacity="0.08" d="M312.086 88.3902C312.086 88.3902 317.184 83.422 323.434 82.4489C317.739 80.736 312.091 83.9086 309.034 86.1275C310.096 86.8281 311.115 87.5835 312.086 88.3902Z" fill="#ED8C8C"/>
<path opacity="0.08" d="M288.379 197.923L285.688 155.409C284.903 143.016 286.615 130.641 292.331 119.518V105.407C292.331 105.407 289.818 90.7113 288.74 88.3757C288.74 88.3757 291.629 83.7384 297.33 82.8771C288.065 80.4782 283.354 88.0448 283.354 88.0448C284.432 90.3804 286.944 105.076 286.944 105.076V119.187C281.228 130.315 279.517 142.685 280.302 155.078L282.992 197.592C290.579 200.083 298.532 201.474 306.574 201.719C300.366 201.139 294.257 199.865 288.379 197.923Z" fill="#ED8C8C"/>
</g>
<g opacity="0.08">
<path opacity="0.08" d="M301.308 88.0545C302.114 87.3014 302.976 86.6022 303.889 85.9622C298.654 82.4684 294.393 81.9818 291.143 82.702C294.058 83.2956 297.445 84.8819 301.308 88.0545Z" fill="#ED8C8C"/>
<path opacity="0.08" d="M327.465 120.491C327.125 119.416 326.784 118.403 326.455 117.494V105.085L330.768 88.0544C326.528 82.2834 321.586 81.3783 317.289 82.2591C320.042 82.8868 322.837 84.5947 325.376 88.0544L321.063 105.085V117.484C321.393 118.394 321.728 119.406 322.073 120.481C326.314 133.924 328.039 147.944 327.172 161.929L325.015 197.578C318.734 200.307 312.07 201.441 305.799 201.68C313.536 201.967 322.277 201.1 330.401 197.578L332.589 161.939C333.448 147.952 331.715 133.932 327.465 120.491Z" fill="#ED8C8C"/>
</g>
<path d="M68.1845 259.842H36.7776V275.413H68.1845V259.842Z" fill="#EAFBFF"/>
<path d="M99.8532 276.143H68.4463V291.714H99.8532V276.143Z" fill="#EAFBFF"/>
<path d="M131.522 259.842H100.115V275.413H131.522V259.842Z" fill="#EAFBFF"/>
<path d="M131.784 292.201H100.377V307.772H131.784V292.201Z" fill="#EAFBFF"/>
<path d="M163.191 276.143H131.784V291.714H163.191V276.143Z" fill="#EAFBFF"/>
<path d="M194.859 259.842H163.452V275.413H194.859V259.842Z" fill="#EAFBFF"/>
<path d="M226.528 276.143H195.121V291.714H226.528V276.143Z" fill="#EAFBFF"/>
<path d="M258.197 259.842H226.79V275.413H258.197V259.842Z" fill="#EAFBFF"/>
<path d="M258.458 292.201H227.051V307.772H258.458V292.201Z" fill="#EAFBFF"/>
<path d="M289.865 276.143H258.458V291.714H289.865V276.143Z" fill="#EAFBFF"/>
<path d="M371 260.085H339.593V275.657H371V260.085Z" fill="#EAFBFF"/>
<path d="M339.07 276.63H307.663V292.201H339.07V276.63Z" fill="#EAFBFF"/>
<path d="M91.478 32.8452H60.071V48.4163H91.478V32.8452Z" fill="#EAFBFF"/>
<path d="M122.885 16.301H91.478V31.8721H122.885V16.301Z" fill="#EAFBFF"/>
<path d="M154.554 0H123.147V15.5711H154.554V0Z" fill="#EAFBFF"/>
<path d="M154.815 32.3586H123.408V47.9297H154.815V32.3586Z" fill="#EAFBFF"/>
<path d="M186.222 16.301H154.815V31.8721H186.222V16.301Z" fill="#EAFBFF"/>
<path d="M218.153 32.8452H186.746V48.4163H218.153V32.8452Z" fill="#EAFBFF"/>
<path d="M249.56 16.301H218.153V31.8721H249.56V16.301Z" fill="#EAFBFF"/>
<path d="M281.228 0H249.821V15.5711H281.228V0Z" fill="#EAFBFF"/>
<path d="M281.49 32.3586H250.083V47.9297H281.49V32.3586Z" fill="#EAFBFF"/>
<path d="M312.897 16.301H281.49V31.8721H312.897V16.301Z" fill="#EAFBFF"/>
<path d="M96.2676 375.866L96.3095 375.793L96.3566 375.701L96.388 375.623C96.4008 375.583 96.4113 375.542 96.4194 375.501C96.4194 375.462 96.4194 375.428 96.4194 375.389C96.4194 375.35 96.4194 375.326 96.4194 375.297C96.4194 375.268 96.4194 375.234 96.4194 375.204C96.4194 375.175 96.4194 375.146 96.4194 375.122C96.4194 375.097 96.4194 375.068 96.4194 375.044C96.5136 374.343 95.9797 373.55 95.3202 372.859C94.8723 372.387 94.3279 372.002 93.7186 371.727C93.1093 371.452 92.4474 371.293 91.7712 371.258C84.2335 370.927 75.7693 358.923 75.7693 358.923L75.4291 359.181C74.5196 357.563 73.7629 355.875 73.1678 354.135H74.0053V353.96V353.784L72.8433 342.593L75.9839 309.081C76.9528 307.072 77.6813 304.97 78.1563 302.814C78.3326 302.013 78.4134 301.197 78.3971 300.381C78.3971 300.322 78.3971 300.264 78.3971 300.205C78.395 298.396 77.9246 296.613 77.0256 295.009L63.8504 271.413C64.3006 271.457 64.5832 271.462 64.5832 271.462C68.4672 266.309 65.9808 258.645 63.2118 253.122C63.7928 252.83 64.1854 252.636 64.1854 252.636C64.0527 252.587 63.9263 252.525 63.8085 252.451L64.1854 252.281C61.9241 251.517 60.0711 245.468 59.2074 242.062L60.4689 237.78C62.5712 238.073 64.6166 238.648 66.5409 239.488C66.5409 239.488 66.3682 239.157 66.0698 238.563L66.5147 238.768C66.5147 238.768 66.342 238.447 66.0541 237.868C64.4524 234.632 59.1917 223.27 59.0608 213.29C59.0703 211.96 59.1963 210.634 59.4377 209.324C59.678 208.075 59.7884 206.807 59.7675 205.538C59.8898 202.698 59.1494 199.883 57.6313 197.416C56.1131 194.949 53.8784 192.929 51.1829 191.587C51.1829 191.587 46.074 187.695 44.9015 183.072C44.5142 181.554 43.3312 180.308 41.8865 179.315C42.4099 175.681 44.3885 172.308 46.3934 169.715C46.6184 169.676 46.8383 169.637 47.0581 169.588C47.3164 169.264 47.5694 168.966 47.8171 168.693C50.6898 167.941 53.2226 166.343 55.0356 164.139C56.8486 161.935 57.844 159.244 57.8726 156.47C57.8633 154.4 57.3077 152.363 56.2545 150.539C55.2014 148.715 53.6828 147.159 51.832 146.008C52.1827 145.969 52.5753 145.721 53.0464 145.035C53.3441 144.546 53.5165 144.001 53.5501 143.44C53.5837 142.88 53.4776 142.32 53.2401 141.804C52.8652 141.046 52.321 140.371 51.6435 139.823C50.5935 138.902 49.4158 138.115 48.1417 137.483C45.1946 135.877 42.1325 134.232 38.7196 133.858C36.9845 133.723 35.2391 133.756 33.5113 133.955L25.6072 134.612C21.8488 134.923 17.6507 135.439 15.3214 138.125C12.992 140.811 13.3428 144.738 11.0029 147.37C9.27556 149.317 6.43846 150.125 4.30802 151.701C0.403083 154.591 -0.628119 159.735 0.277449 164.216C1.18302 168.698 3.68511 172.766 5.81031 176.902C7.93552 181.038 9.75713 185.529 9.14992 190.04C8.62648 193.933 6.34947 197.495 5.53813 201.358C4.93838 204.22 5.15677 207.178 6.17149 209.937C6.33452 210.502 6.64359 211.021 7.07183 211.45C7.13674 211.504 7.20489 211.554 7.27597 211.601C7.33413 211.673 7.39707 211.741 7.46442 211.805C8.23912 212.487 9.42212 212.574 10.5057 212.603C13.1229 212.686 15.8134 212.706 18.2108 213.65C19.0157 213.967 19.7586 214.406 20.4093 214.949C20.953 215.434 21.3775 216.022 21.654 216.674C21.9304 217.326 22.0522 218.025 22.0111 218.725C21.7912 220.866 19.8074 223.104 21.0532 224.919H21.2573C21.3109 225.034 21.3739 225.144 21.4457 225.25C22.7613 225.447 24.0995 225.478 25.424 225.343C25.7235 227.38 25.8983 229.432 25.9474 231.488C25.9474 233.712 25.6229 235.595 24.8691 236.705H25.0104H25.1622H25.2617C25.1568 236.962 25.0253 237.21 24.8691 237.444L26.4133 237.337C24.431 240.404 22.273 243.37 19.9487 246.222C17.0186 249.575 15.4066 253.756 15.379 258.076C15.3659 258.711 15.3904 259.346 15.4523 259.978C15.803 263.443 17.143 267.141 20.5507 270.085C20.5507 270.085 21.9954 273.34 22.0582 276.114C22.0591 276.719 21.9475 277.32 21.7284 277.89V303.071L17.0174 319.742C16.4149 323.075 16.1154 326.45 16.1223 329.829C16.1223 334.695 16.7713 340.379 19.3729 344.573L23.304 361.954L23.6966 361.993V366.859C23.215 366.47 22.9114 366.198 22.9114 366.198L21.7441 376.839H21.7808L21.7441 377.185C21.7441 377.185 28.4286 378.606 47.2937 378.956H48.2778H49.5498H50.1674H50.4501H51.2353H51.2876L52.0832 378.922H52.3188L52.8423 378.893H53.0987L53.5855 378.859H53.8106L54.3917 378.805H54.4754L55.0983 378.737H55.271L55.6846 378.679L55.8783 378.65L56.2499 378.591L56.4226 378.562L56.8519 378.479H56.9199L57.3858 378.377L57.5009 378.348L57.8202 378.27L57.9563 378.231L58.2338 378.153L58.3542 378.119L58.663 378.017H58.7154L59.0451 377.89L59.1132 377.861L59.3435 377.759L59.4272 377.72L59.6157 377.623L59.689 377.584L59.8931 377.467H59.9193L60.1287 377.321H60.1548L60.3014 377.199L60.3433 377.161L60.4584 377.049L60.4898 377.015L60.5998 376.883C60.6362 376.833 60.6694 376.781 60.6992 376.727C60.7248 376.682 60.7475 376.635 60.7673 376.586V376.557C60.7819 376.516 60.7941 376.473 60.8039 376.431V376.401C60.8069 376.354 60.8069 376.307 60.8039 376.26C60.8145 376.171 60.8145 376.082 60.8039 375.993C61.0081 374.713 58.9195 373.477 57.0874 373.477C53.1563 373.477 40.1852 363.19 39.4001 362.48C39.0703 362.183 38.4736 362.276 37.7355 362.611C37.1492 362.125 36.4949 361.502 35.8615 360.84C36.0814 360.601 36.2182 360.306 36.2541 359.993L36.2018 359.872C36.2258 359.795 36.2433 359.717 36.2541 359.638C36.2541 359.638 33.5845 353.609 33.4746 350.724C33.4778 350.621 33.4865 350.519 33.5008 350.417L33.8201 324.959C33.892 321.642 35.0315 318.422 37.0917 315.713C38.7144 313.538 40.3842 310.171 40.5778 305.383L46.0269 286.926C53.329 293.203 59.1132 301.524 59.7727 302.449C59.3487 304.161 56.9618 314.195 57.0141 323.99C57.0141 324.049 57.0141 324.107 57.0141 324.165C56.9838 327.146 57.2713 330.122 57.8726 333.051C59.196 338.899 59.8973 344.855 59.9664 350.831C59.9664 352.845 59.8617 353.979 59.8617 353.979C59.8617 354.091 59.8617 354.154 59.8617 354.154C59.8617 354.266 59.8617 354.329 59.8617 354.329H60.6469V358.903L60.448 358.762L55.5328 366.743L55.6375 366.835L55.5328 367.093C55.5328 367.093 63.7876 374.878 84.2283 377.024L85.3694 377.136L85.6939 377.165L86.4843 377.229H86.788L87.7773 377.297L88.6776 377.341H88.9393H89.5675H90.6144H91.2948H91.5042H91.9858H92.1742L92.7605 377.297H92.8495L93.3311 377.243H93.4933L93.8336 377.19L93.9801 377.165L94.3989 377.078H94.4617L94.7758 376.99L94.8962 376.951L95.116 376.873L95.226 376.835L95.4929 376.713L95.5505 376.679L95.7285 376.577L95.8122 376.523L95.9326 376.436L96.0006 376.377C96.047 376.336 96.0907 376.292 96.1315 376.246L96.1839 376.182L96.2676 375.866Z" fill="url(#paint0_linear)"/>
<path d="M58.6472 246.266C58.6472 246.266 70.3411 262.397 63.9288 271.166C63.9288 271.166 54.5067 271.166 56.7628 261.696C58.1167 256.005 57.8569 250.085 56.009 244.515L58.6472 246.266Z" fill="#F7C4A7"/>
<path d="M24.6963 357.084V369.706L36.767 370.757L41.2949 364.431L40.1642 362.679C40.1642 362.679 34.8826 358.835 33.752 355.327C32.6213 351.819 24.6963 357.084 24.6963 357.084Z" fill="#F7C4A7"/>
<path opacity="0.1" d="M29.9779 367.954C29.9779 367.954 38.1647 359.434 39.7874 360.942C40.5412 361.643 52.9888 371.813 56.7628 371.813C60.5369 371.813 65.4416 377.423 47.3408 377.073C29.2399 376.723 22.8224 375.321 22.8224 375.321L23.953 364.801C23.953 364.801 28.0935 368.655 29.9779 367.954Z" fill="black"/>
<path d="M29.9779 368.305C29.9779 368.305 38.1647 359.784 39.7874 361.293C40.5412 361.993 52.9888 372.163 56.7628 372.163C60.5369 372.163 65.4416 377.774 47.3408 377.423C29.2399 377.073 22.8224 375.672 22.8224 375.672L23.9426 365.161C23.9426 365.161 28.0935 369.005 29.9779 368.305Z" fill="#F3B5B7"/>
<path d="M60.1548 350.768V360.587L66.567 365.497L73.7331 363.745L75.6175 359.886C75.6175 359.886 71.8434 354.977 70.7127 346.559L60.1548 350.768Z" fill="#F7C4A7"/>
<path opacity="0.1" d="M65.4365 361.268H69.9643L74.6753 357.585C74.6753 357.585 82.7993 369.453 90.0281 369.779C90.681 369.816 91.3189 369.976 91.9036 370.249C92.4883 370.522 93.0077 370.901 93.4305 371.365C95.3202 373.399 96.1891 376.382 82.7836 374.947C63.1752 372.864 55.2554 365.161 55.2554 365.161L59.9664 357.269L65.4365 361.268Z" fill="black"/>
<path d="M65.4364 361.638H69.9643L74.6753 357.955C74.6753 357.955 82.7992 369.823 90.0281 370.149C90.6809 370.187 91.3189 370.346 91.9036 370.619C92.4883 370.892 93.0077 371.271 93.4305 371.735C95.3202 373.769 96.1891 376.752 82.7835 375.317C63.1647 373.215 55.2449 365.497 55.2449 365.497L59.9559 357.604L65.4364 361.638Z" fill="#F3B5B7"/>
<path opacity="0.1" d="M58.2704 240.305C58.2704 240.305 60.5317 251.526 63.552 252.577C63.552 252.577 57.1397 255.385 58.2704 258.188L52.9888 235.396L59.401 236.096L58.2704 240.305Z" fill="black"/>
<path d="M58.2704 239.955C58.2704 239.955 60.5317 251.176 63.552 252.227C63.552 252.227 57.1397 255.035 58.2704 257.838L52.9888 235.045L59.401 235.727L58.2704 239.955Z" fill="#F0AEFB"/>
<path opacity="0.1" d="M58.2704 239.955C58.2704 239.955 60.5317 251.176 63.552 252.227C63.552 252.227 57.1397 255.035 58.2704 257.838L52.9888 235.045L59.401 235.727L58.2704 239.955Z" fill="black"/>
<path opacity="0.1" d="M53.3656 253.283L75.874 294.794C77.1075 297.063 77.4889 299.649 76.9575 302.142C76.5001 304.272 75.7981 306.35 74.8637 308.341L71.8434 341.654L72.9583 352.875H59.401C59.401 352.875 60.1548 344.116 57.5166 331.834C54.8784 319.552 59.401 301.665 59.401 301.665C59.401 301.665 51.1043 289.043 41.6718 282.727C32.2392 276.411 53.3656 253.283 53.3656 253.283Z" fill="black"/>
<path d="M53.3656 252.928L75.874 294.439C77.1075 296.707 77.4889 299.294 76.9575 301.787C76.5001 303.917 75.7981 305.995 74.8637 307.986L71.8539 341.318L72.9583 352.51H59.401C59.401 352.51 60.1548 343.751 57.5166 331.469C54.8784 319.188 59.401 301.3 59.401 301.3C59.401 301.3 51.1043 288.678 41.6718 282.362C32.2392 276.046 53.3656 252.928 53.3656 252.928Z" fill="#575988"/>
<path opacity="0.05" d="M53.3656 253.108L75.874 294.619C77.1075 296.887 77.4889 299.474 76.9575 301.967C76.5001 304.097 75.7981 306.175 74.8637 308.166L71.8434 341.478L72.9583 352.699H59.401C59.401 352.699 60.1548 343.941 57.5166 331.659C54.8784 319.377 59.401 301.49 59.401 301.49C59.401 301.49 51.1043 288.868 41.6718 282.552C32.2392 276.236 53.3656 253.108 53.3656 253.108Z" fill="black"/>
<path opacity="0.1" d="M29.2242 234.695C29.2242 234.695 24.5551 242.388 21.1055 246.529C17.9186 250.279 16.3758 255.011 16.7871 259.774C17.1221 263.18 18.4098 266.854 21.6813 269.764C21.6813 269.764 23.9426 275.024 22.812 277.832V302.731L18.2841 319.212C18.2841 319.212 15.2638 334.642 20.5454 343.41L24.3195 360.592C24.3195 360.592 36.3903 361.993 36.7671 358.49C36.7671 358.49 33.7468 351.478 34.1499 349.021L34.4535 323.849C34.5158 320.579 35.6077 317.396 37.5942 314.696C39.1645 312.55 40.7349 309.217 40.9443 304.478L60.9191 234.695H29.2242Z" fill="black"/>
<path d="M29.2242 234.345C29.2242 234.345 24.5551 242.038 21.1055 246.179C17.9186 249.929 16.3758 254.66 16.7871 259.424C17.1221 262.83 18.4098 266.504 21.6813 269.414C21.6813 269.414 23.9426 274.674 22.812 277.481V302.39L18.2841 318.871C18.2841 318.871 15.2638 334.301 20.5454 343.07L24.3195 360.251C24.3195 360.251 36.3903 361.653 36.7671 358.149C36.7671 358.149 33.7468 351.138 34.1499 348.68L34.4535 323.509C34.5158 320.238 35.6077 317.056 37.5942 314.356C39.1645 312.21 40.7349 308.877 40.9443 304.137L60.9191 234.345H29.2242Z" fill="#575988"/>
<path d="M56.3859 259.945C56.3859 259.945 59.0032 275.725 49.5811 280.635C49.5811 280.635 45.807 278.202 51.0886 270.114L51.4655 259.244L56.3859 259.945Z" fill="#F7C4A7"/>
<path opacity="0.1" d="M82.794 374.616C64.9654 372.703 56.7996 366.159 55.4595 364.981L55.2554 365.497C55.2554 365.497 63.1752 373.21 82.794 375.317C92.8286 376.392 94.8648 374.99 94.4617 373.37C94.0848 374.65 91.3367 375.531 82.794 374.616Z" fill="black"/>
<path opacity="0.1" d="M47.3094 376.353C30.559 376.027 23.8013 374.801 22.9009 374.621L22.791 375.652C22.791 375.652 29.2033 377.054 47.3094 377.404C58.5793 377.623 60.9191 375.531 60.1967 373.92C59.5738 375.273 56.2342 376.543 47.3094 376.353Z" fill="black"/>
<path opacity="0.1" d="M24.5079 269.939C24.5079 269.939 33.5636 269.939 36.2018 267.837C38.84 265.735 45.2575 267.837 45.2575 267.837" fill="black"/>
<path opacity="0.1" d="M22.2466 343.581C16.965 334.822 19.9852 319.382 19.9852 319.382L24.5131 302.901V278.002C25.6438 275.195 23.3824 269.934 23.3824 269.934C20.1109 267.015 18.8232 263.37 18.4882 259.945C18.077 255.181 19.6197 250.449 22.8067 246.699C26.2562 242.559 30.9254 234.865 30.9254 234.865H61.0028L61.1022 234.515H29.4126C29.4126 234.515 24.7434 242.208 21.2939 246.349C18.0963 250.097 16.544 254.831 16.9492 259.599C17.2843 263.005 18.5719 266.679 21.8435 269.589C21.8435 269.589 24.1048 274.849 22.9742 277.657V302.556L18.4463 319.037C18.4463 319.037 15.426 334.467 20.7076 343.235L24.4817 360.417C24.4817 360.417 25.0522 360.485 25.9421 360.548L22.2466 343.581Z" fill="black"/>
<path d="M51.1044 165.613C51.1044 165.613 42.4256 172.956 42.0749 181.393C41.7242 189.831 27.3607 179.641 27.3607 179.641C27.3607 179.641 38.3008 175.082 37.547 161.759L51.1044 165.613Z" fill="#F7C4A7"/>
<path opacity="0.1" d="M35.6364 177.885C35.6364 177.885 23.9426 173.676 21.676 191.563L24.2933 215.061C24.2933 215.061 28.8211 232.943 25.8008 237.503C25.8008 237.503 56.7367 235.07 65.7871 239.605C65.7871 239.605 56.7314 222.087 58.9823 209.796C61.2331 197.504 51.0625 192.965 51.0625 192.965C51.0625 192.965 46.1578 189.106 45.0271 184.546C43.8965 179.987 35.6364 177.885 35.6364 177.885Z" fill="black"/>
<path d="M35.6365 177.184C35.6365 177.184 23.9426 172.956 21.6604 190.858L23.817 210.049C24.1049 212.604 24.5237 215.149 25.0576 217.669C26.1987 223.065 28.0098 233.474 25.8114 236.797C25.8114 236.797 56.7472 234.364 65.7977 238.899C65.7977 238.899 56.742 221.382 58.9928 209.09C61.2436 196.799 51.073 192.259 51.073 192.259C51.073 192.259 46.1683 188.4 45.0377 183.841C43.907 179.282 35.6365 177.184 35.6365 177.184Z" fill="#F0AEFB"/>
<path opacity="0.1" d="M33.3751 200.327L46.9534 246.967C46.9534 246.967 52.235 258.188 49.9737 261.346C49.9737 261.346 56.0091 264.153 58.6525 261.346C61.2959 258.538 52.994 226.277 52.994 226.277L48.0893 200.327H33.3751Z" fill="black"/>
<path d="M33.7521 199.976L47.3094 246.617C47.3094 246.617 52.591 257.837 50.3297 260.995C50.3297 260.995 56.3651 263.803 59.0085 260.995C61.6519 258.188 53.35 225.926 53.35 225.926L48.4453 199.976H33.7521Z" fill="#F0AEFB"/>
<path opacity="0.1" d="M48.2725 207.869C48.2725 207.869 52.0465 218.039 53.9309 219.09C55.8154 220.141 54.6847 227.849 54.6847 227.849" fill="black"/>
<path opacity="0.1" d="M37.3324 166.489C39.3896 167.657 41.3472 170.868 43.9331 170.868C45.0105 170.868 46.0842 170.749 47.1314 170.513C48.3222 169.007 49.6515 167.601 51.1044 166.309L37.5261 162.45C37.6622 164.942 37.8873 164.581 37.3324 166.489Z" fill="black"/>
<path d="M43.9384 170.167C51.4375 170.167 57.5167 164.516 57.5167 157.545C57.5167 150.574 51.4375 144.923 43.9384 144.923C36.4393 144.923 30.3601 150.574 30.3601 157.545C30.3601 164.516 36.4393 170.167 43.9384 170.167Z" fill="#F7C4A7"/>
<g opacity="0.1">
<path opacity="0.1" d="M27.7952 236.661C29.889 233.201 28.0883 222.997 26.9629 217.684C26.4394 215.163 26.0102 212.618 25.7223 210.064L23.5657 190.872C24.979 179.715 30.0617 177.155 33.684 176.81C30.2554 176.493 23.3615 177.574 21.6813 190.872L23.8379 210.064C24.1258 212.618 24.5445 215.163 25.0785 217.684C26.2196 223.08 28.0307 233.488 25.8322 236.812C25.8479 236.797 26.5494 236.744 27.7952 236.661Z" fill="black"/>
<path opacity="0.1" d="M44.3152 236.14C52.6904 236.179 61.589 236.783 65.8133 238.904C65.8133 238.904 65.651 238.588 65.3736 238.014C60.2647 236.481 51.879 236.106 44.3152 236.14Z" fill="black"/>
</g>
<path opacity="0.1" d="M48.4819 154.611C47.3094 157.385 45.2156 159.657 43.0642 161.852C41.8655 163.088 40.6302 164.338 39.9235 165.861C39.3548 167.236 39.0022 168.68 38.8766 170.148C38.0391 176.158 37.2592 182.561 40.0858 188.016C40.8762 189.544 41.9388 190.965 42.4623 192.585C43.4149 195.553 42.4623 198.75 41.1955 201.626C39.4651 205.627 37.2188 209.417 34.5058 212.915C32.9355 214.934 31.1662 216.949 30.6061 219.382C30.2293 221.012 30.3706 222.856 29.2609 224.165C27.7795 225.912 24.9319 225.776 22.5607 225.474C21.3673 223.664 23.2674 221.465 23.4768 219.353C23.7123 217.032 21.7494 214.915 19.4514 214C17.1535 213.085 14.5624 213.027 12.0551 212.969C11.0082 212.934 9.88277 212.852 9.13947 212.18C8.72634 211.752 8.43009 211.238 8.27579 210.682C7.33197 207.979 7.13397 205.099 7.69999 202.307C8.47993 198.487 10.668 194.979 11.1652 191.115C11.7463 186.639 9.99794 182.196 7.95649 178.109C5.91504 174.021 3.5124 170.002 2.64347 165.569C1.77455 161.136 2.76387 156.056 6.51176 153.195C8.55845 151.633 11.2751 150.83 12.9345 148.913C15.1801 146.319 14.8765 142.407 17.0802 139.784C19.2839 137.162 23.3616 136.622 26.9472 136.31L34.532 135.663C36.1899 135.466 37.8657 135.433 39.531 135.566C42.8078 135.94 45.7495 137.561 48.5762 139.152C50.3716 140.159 52.2717 141.278 53.0935 143.074C53.321 143.585 53.4221 144.137 53.3895 144.69C53.3569 145.242 53.1914 145.781 52.9051 146.266C51.5127 148.349 50.8532 146.339 49.7644 146.811C48.1365 147.468 49.3561 152.519 48.4819 154.611Z" fill="black"/>
<path d="M48.105 154.261C46.9586 157.02 44.823 159.307 42.6925 161.496C41.4938 162.732 40.2585 163.983 39.5518 165.506C38.9831 166.881 38.6305 168.324 38.5049 169.793C37.6674 175.802 36.8875 182.206 39.7141 187.661C40.5045 189.189 41.5671 190.609 42.0906 192.23C43.0432 195.198 42.0906 198.395 40.8238 201.271C39.0934 205.271 36.8471 209.062 34.1341 212.56C32.5638 214.579 30.7945 216.594 30.2344 219.027C29.8575 220.657 29.9989 222.501 28.8892 223.81C27.4078 225.557 24.5602 225.42 22.189 225.119C20.9956 223.309 22.8957 221.109 23.1051 218.997C23.3406 216.676 21.3777 214.56 19.0797 213.645C16.7818 212.73 14.1907 212.672 11.6834 212.613C10.6365 212.579 9.51107 212.496 8.76777 211.825C8.35463 211.397 8.05839 210.883 7.90408 210.326C6.96026 207.624 6.76226 204.744 7.32828 201.952C8.10822 198.132 10.2962 194.624 10.7935 190.76C11.3745 186.284 9.62622 181.841 7.58477 177.753C5.54332 173.666 3.1407 169.647 2.27177 165.214C1.40284 160.781 2.39216 155.701 6.14006 152.84C8.18675 151.278 10.9034 150.475 12.5628 148.558C14.8084 145.964 14.5048 142.052 16.7085 139.429C18.9122 136.806 22.9899 136.266 26.5755 135.955L34.1603 135.308C35.8182 135.111 37.4939 135.078 39.1592 135.21C42.436 135.585 45.3778 137.205 48.2044 138.797C49.9999 139.804 51.9 140.923 52.7218 142.719C52.9493 143.23 53.0504 143.782 53.0178 144.335C52.9852 144.887 52.8197 145.426 52.5334 145.911C51.141 147.993 50.4815 145.984 49.3927 146.456C47.7595 147.117 48.9791 152.154 48.105 154.261Z" fill="#965D7B"/>
</g>
<defs>
<linearGradient id="paint0_linear" x1="48.2254" y1="379" x2="48.2254" y2="133.872" gradientUnits="userSpaceOnUse">
<stop stop-color="#808080" stop-opacity="0.25"/>
<stop offset="0.54" stop-color="#808080" stop-opacity="0.12"/>
<stop offset="1" stop-color="#808080" stop-opacity="0.1"/>
</linearGradient>
<clipPath id="clip0">
<rect width="371" height="379" fill="white"/>
</clipPath>
</defs>
</svg>
