<svg width="415" height="346" viewBox="0 0 415 346" fill="none" xmlns="http://www.w3.org/2000/svg">
<g clip-path="url(#clip0)">
<path d="M19.2836 329.702C25.0401 340.364 37.2574 344.941 37.2574 344.941C37.2574 344.941 40.1416 332.231 34.3851 321.569C28.6287 310.907 16.4114 306.33 16.4114 306.33C16.4114 306.33 13.5272 319.04 19.2836 329.702Z" fill="#288D32"/>
<path d="M23.2402 326.194C33.633 332.438 37.6356 344.842 37.6356 344.842C37.6356 344.842 24.7882 347.121 14.3954 340.876C4.00259 334.632 0 322.228 0 322.228C0 322.228 12.8475 319.949 23.2402 326.194Z" fill="#43D651"/>
<path d="M256.248 16.6104H191.404V17.5355H256.248V16.6104Z" fill="#F2F2F2"/>
<path d="M238.647 17.3042H237.721V25.862H238.647V17.3042Z" fill="#F2F2F2"/>
<path d="M210.394 17.3042H209.468V25.862H210.394V17.3042Z" fill="#F2F2F2"/>
<path d="M289.133 61.0184H224.289V61.9436H289.133V61.0184Z" fill="#F2F2F2"/>
<path d="M242.816 52.692H241.89V61.2498H242.816V52.692Z" fill="#F2F2F2"/>
<path d="M271.069 52.692H270.143V61.2498H271.069V52.692Z" fill="#F2F2F2"/>
<path d="M375.282 81.8348H310.439V82.76H375.282V81.8348Z" fill="#F2F2F2"/>
<path d="M328.966 73.5083H328.039V82.0661H328.966V73.5083Z" fill="#F2F2F2"/>
<path d="M357.219 73.5083H356.292V82.0661H357.219V73.5083Z" fill="#F2F2F2"/>
<path d="M368.798 296.474H303.954V297.399H368.798V296.474Z" fill="#F2F2F2"/>
<path d="M322.481 288.147H321.555V296.705H322.481V288.147Z" fill="#F2F2F2"/>
<path d="M350.734 288.147H349.808V296.705H350.734V288.147Z" fill="#F2F2F2"/>
<path d="M258.101 147.984H193.257V148.91H258.101V147.984Z" fill="#F2F2F2"/>
<path d="M211.784 139.658H210.857V148.216H211.784V139.658Z" fill="#F2F2F2"/>
<path d="M240.037 139.658H239.111V148.216H240.037V139.658Z" fill="#F2F2F2"/>
<path d="M278.48 259.467H213.636V260.392H278.48V259.467Z" fill="#F2F2F2"/>
<path d="M232.163 251.141H231.237V259.699H232.163V251.141Z" fill="#F2F2F2"/>
<path d="M260.416 251.141H259.49V259.699H260.416V251.141Z" fill="#F2F2F2"/>
<path d="M382.23 225.699H317.386V226.624H382.23V225.699Z" fill="#F2F2F2"/>
<path d="M335.913 217.372H334.987V225.93H335.913V217.372Z" fill="#F2F2F2"/>
<path d="M364.166 217.372H363.24V225.93H364.166V217.372Z" fill="#F2F2F2"/>
<path d="M167.695 324.819H58.0231V324.032H166.906V285.813H67.2429L62.4014 275.739L63.1128 275.398L67.7394 285.025H167.695V324.819Z" fill="#2F2E41"/>
<path d="M72.6197 344.126C77.1951 344.126 80.9043 340.421 80.9043 335.852C80.9043 331.282 77.1951 327.578 72.6197 327.578C68.0442 327.578 64.3351 331.282 64.3351 335.852C64.3351 340.421 68.0442 344.126 72.6197 344.126Z" fill="#363636"/>
<path d="M154.282 344.126C158.857 344.126 162.567 340.421 162.567 335.852C162.567 331.282 158.857 327.578 154.282 327.578C149.707 327.578 145.997 331.282 145.997 335.852C145.997 340.421 149.707 344.126 154.282 344.126Z" fill="#363636"/>
<path d="M250.541 165.247C253.373 165.247 255.67 162.954 255.67 160.125C255.67 157.296 253.373 155.003 250.541 155.003C247.709 155.003 245.412 157.296 245.412 160.125C245.412 162.954 247.709 165.247 250.541 165.247Z" fill="black"/>
<path d="M179.425 272.811H56.1531L29.48 185.735H206.894L206.733 186.248L179.425 272.811ZM56.7368 272.023H178.846L205.819 186.523H30.5464L56.7368 272.023Z" fill="#2F2E41"/>
<path d="M169.803 268.28H61.5284L38.1003 191.054H193.93L193.788 191.509L169.803 268.28Z" fill="#F2F2F2"/>
<path d="M209.105 177.956L208.342 177.754L213.549 158.155H243.835V158.943H214.156L209.105 177.956Z" fill="#2F2E41"/>
<path d="M198.029 212.134H38.0996V212.922H198.029V212.134Z" fill="#2F2E41"/>
<path d="M188.87 241.166H46.9927V241.954H188.87V241.166Z" fill="#2F2E41"/>
<path d="M118.579 186.129H117.79V272.417H118.579V186.129Z" fill="#2F2E41"/>
<path d="M153.905 186.105L148.241 272.39L149.028 272.441L154.692 186.156L153.905 186.105Z" fill="#2F2E41"/>
<path d="M82.4816 186.104L81.6941 186.155L87.325 272.442L88.1125 272.391L82.4816 186.104Z" fill="#2F2E41"/>
<path d="M415 344.625H0V345.551H415V344.625Z" fill="#2F2E41"/>
<path d="M275.776 28.6229C275.776 28.6229 282.547 47.8693 278.38 50.8303C274.214 53.7913 292.443 77.9727 292.443 77.9727L314.318 72.0507L302.339 51.8173C302.339 51.8173 300.776 31.5839 300.776 28.6229C300.776 25.6619 275.776 28.6229 275.776 28.6229Z" fill="#FBBF9D"/>
<path opacity="0.1" d="M275.776 28.6229C275.776 28.6229 282.547 47.8693 278.38 50.8303C274.214 53.7913 292.443 77.9727 292.443 77.9727L314.318 72.0507L302.339 51.8173C302.339 51.8173 300.776 31.5839 300.776 28.6229C300.776 25.6619 275.776 28.6229 275.776 28.6229Z" fill="black"/>
<path d="M264.411 165.815C264.411 165.815 262.435 190.49 264.411 203.321C266.388 216.152 269.353 251.684 269.353 251.684C269.353 251.684 269.353 318.8 280.223 319.787C291.094 320.774 299 321.761 299.988 317.813C300.976 313.865 295.047 311.891 298.012 309.917C300.976 307.943 301.965 301.034 298.012 293.138C294.059 285.242 298.012 205.295 298.012 205.295L316.788 255.632C316.788 255.632 318.765 297.086 320.741 303.008C322.718 308.93 318.765 319.787 325.683 320.774C332.6 321.761 340.506 315.839 344.459 313.865C348.412 311.891 338.53 311.891 340.506 310.904C342.483 309.917 348.412 306.956 346.436 305.969C344.459 304.982 342.483 257.606 342.483 257.606C342.483 257.606 337.047 156.439 330.13 152.491C323.212 148.543 318.765 155.343 318.765 155.343L264.411 165.815Z" fill="#CF613E"/>
<path d="M282.2 315.839V323.735C282.2 323.735 273.305 345.198 282.2 345.198C291.094 345.198 298.012 347.422 298.012 344.461V317.813L282.2 315.839Z" fill="#194273"/>
<path d="M340.506 315.825V323.721C340.506 323.721 349.4 345.184 340.506 345.184C331.612 345.184 324.694 347.409 324.694 344.448V317.799L340.506 315.825Z" fill="#194273"/>
<path d="M289.612 42.9343C299.436 42.9343 307.4 34.9802 307.4 25.1684C307.4 15.3565 299.436 7.40247 289.612 7.40247C279.787 7.40247 271.823 15.3565 271.823 25.1684C271.823 34.9802 279.787 42.9343 289.612 42.9343Z" fill="#FBBF9D"/>
<path d="M284.176 58.2328C284.176 58.2328 289.117 73.0377 297.023 70.0767L304.929 67.1157L318.765 161.867C318.765 161.867 307.894 177.659 292.082 167.789C276.27 157.919 284.176 58.2328 284.176 58.2328Z" fill="white"/>
<path d="M298.012 55.2718L302.459 45.8954C302.459 45.8954 328.647 58.2328 332.6 62.1808C336.553 66.1288 336.553 72.0508 336.553 72.0508L329.635 96.7257C329.635 96.7257 331.612 151.01 331.612 152.984C331.612 154.958 338.53 165.815 333.588 161.867C328.647 157.919 327.659 153.971 323.706 159.893C319.753 165.815 310.859 172.724 310.859 172.724L298.012 55.2718Z" fill="#194273"/>
<path d="M332.6 126.335L329.635 153.971C329.635 153.971 311.847 169.763 315.8 170.75C319.753 171.737 321.729 167.789 321.729 167.789C321.729 167.789 328.647 174.698 332.6 170.75C336.553 166.802 346.436 129.296 346.436 129.296L332.6 126.335Z" fill="#FBBF9D"/>
<path d="M289.991 0.0600763C286.047 -0.0807205 281.827 -0.150368 278.502 1.97203C276.972 3.03718 275.631 4.34901 274.532 5.85383C271.293 9.94236 268.495 15.0867 269.698 20.1594L271.095 19.6152C271.095 20.9693 270.794 22.3064 270.213 23.5299C270.41 22.9586 271.068 23.8822 270.892 24.4601L269.353 29.5026C271.883 28.5763 275.03 30.4517 275.415 33.1152C275.591 27.2583 276.199 20.5423 280.957 17.1129C283.356 15.3834 286.392 14.8555 289.313 14.3867C292.008 13.9541 294.833 13.5417 297.414 14.4278C299.995 15.3138 302.193 17.9503 301.608 20.6129C302.798 20.2035 304.13 21.0319 304.718 22.1434C305.306 23.255 305.337 24.5662 305.354 25.8233C306.623 26.7188 308.067 24.9406 308.584 23.4775C309.798 20.0431 310.876 16.3873 310.223 12.8043C309.569 9.22128 306.645 5.79718 302.999 5.78503C303.441 5.29947 303.678 4.661 303.657 4.00466L300.652 3.75103C301.415 3.64312 302.116 3.27361 302.637 2.7058C301.43 4.03199 291.942 0.129746 289.991 0.0600763Z" fill="#2F2E41"/>
<path d="M289.117 52.3108C289.117 52.3108 281.072 44.4372 278.177 44.9195C275.282 45.4018 271.329 52.3108 271.329 52.3108C271.329 52.3108 247.611 60.2067 248.599 68.1027C249.588 75.9987 260.458 114.491 260.458 114.491C260.458 114.491 269.353 160.88 261.447 165.815C253.541 170.75 299 183.581 299.988 177.659C300.976 171.737 302.953 112.517 299.988 103.635C297.023 94.7516 289.117 52.3108 289.117 52.3108Z" fill="#194273"/>
<path d="M323.706 68.1027H335.926C335.926 68.1027 344.459 105.608 345.447 109.556C346.436 113.504 348.412 132.257 347.424 132.257C346.436 132.257 326.671 128.309 326.671 131.27L323.706 68.1027Z" fill="#194273"/>
<path d="M323.292 160.979H276.512C271.947 140.006 271.566 119.742 276.512 100.381H323.292C315.743 119.393 315.271 139.519 323.292 160.979Z" fill="#F2F2F2"/>
<path d="M257.494 135.218L271.329 141.14C271.329 141.14 298.012 145.088 298.012 134.231C298.012 123.375 271.329 129.297 271.329 129.297L262.434 126.456L257.494 135.218Z" fill="#FBBF9D"/>
<path d="M260.458 62.1807L248.599 65.1417L239.705 117.452C239.705 117.452 236.74 131.27 241.682 132.257C246.623 133.244 260.458 141.14 260.458 141.14C260.458 141.14 262.435 126.335 266.388 126.335L256.505 118.439L262.435 83.8946L260.458 62.1807Z" fill="#194273"/>
<path d="M92.749 163.25H27.9053V164.175H92.749V163.25Z" fill="#F2F2F2"/>
<path d="M46.4321 154.923H45.5057V163.481H46.4321V154.923Z" fill="#F2F2F2"/>
<path d="M74.6854 154.923H73.759V163.481H74.6854V154.923Z" fill="#F2F2F2"/>
<path d="M115.444 26.3247H50.6006V27.2499H115.444V26.3247Z" fill="#F2F2F2"/>
<path d="M97.8439 27.0186H96.9176V35.5764H97.8439V27.0186Z" fill="#F2F2F2"/>
<path d="M69.5905 27.0186H68.6642V35.5764H69.5905V27.0186Z" fill="#F2F2F2"/>
<path d="M180.751 117.454H115.907V118.379H180.751V117.454Z" fill="#F2F2F2"/>
<path d="M163.151 118.148H162.224V126.706H163.151V118.148Z" fill="#F2F2F2"/>
<path d="M134.897 118.148H133.971V126.706H134.897V118.148Z" fill="#F2F2F2"/>
<path d="M70.5168 116.991H5.6731V117.916H70.5168V116.991Z" fill="#F2F2F2"/>
<path d="M52.9165 117.685H51.9901V126.243H52.9165V117.685Z" fill="#F2F2F2"/>
<path d="M24.663 117.685H23.7367V126.243H24.663V117.685Z" fill="#F2F2F2"/>
<path d="M148.329 70.7328H83.4856V71.658H148.329V70.7328Z" fill="#F2F2F2"/>
<path d="M102.012 62.4062H101.086V70.9641H102.012V62.4062Z" fill="#F2F2F2"/>
<path d="M130.266 62.4062H129.339V70.9641H130.266V62.4062Z" fill="#F2F2F2"/>
</g>
<defs>
<clipPath id="clip0">
<rect width="415" height="346" fill="white"/>
</clipPath>
</defs>
</svg>
