<svg xmlns="http://www.w3.org/2000/svg">
<symbol id="logo" width="135" height="33" viewBox="0 0 135 33" fill="none">
<path d="M131.818 20.1143L116.73 24.157L117.063 22.3701L129.644 18.974C130.069 18.86 130.351 18.4501 130.311 17.998L129.37 7.51531C129.346 7.24041 129.205 6.98825 128.982 6.8276C128.873 6.74862 128.748 6.69479 128.616 6.66984C128.485 6.64488 128.35 6.6494 128.221 6.68308L112.194 10.919L111.881 10.295C111.682 9.89678 111.229 9.68901 110.809 9.8017L106.894 10.8506C106.657 10.9141 106.456 11.0718 106.334 11.2889C106.212 11.506 106.181 11.7648 106.246 12.0083C106.311 12.2518 106.468 12.46 106.682 12.5873C106.896 12.7145 107.149 12.7503 107.386 12.6867L110.576 11.832L111.956 14.5899L115.388 21.5115L114.344 25.1949C114.282 25.3576 114.266 25.5354 114.298 25.7081C114.33 25.8809 114.409 26.0417 114.525 26.1723C114.76 26.4411 115.118 26.554 115.458 26.463L117.049 26.0367C116.834 26.5901 116.801 27.2025 116.957 27.7812C117.351 29.2533 118.837 30.1374 120.271 29.7531C121.706 29.3689 122.55 27.8602 122.156 26.3882C122.001 25.8082 121.662 25.2941 121.204 24.9233L125.286 23.8297C125.07 24.383 125.038 24.9954 125.194 25.5742C125.588 27.0463 127.074 27.9303 128.508 27.5461C129.942 27.1619 130.787 25.6532 130.393 24.1812C130.237 23.6012 129.899 23.087 129.441 22.7163L132.311 21.9471C132.803 21.8154 133.096 21.2966 132.96 20.7894C132.893 20.5466 132.736 20.3393 132.522 20.2128C132.308 20.0863 132.055 20.0509 131.818 20.1143ZM113.052 12.6293L127.654 8.76976L128.425 17.366L116.971 20.4573L113.052 12.6293ZM119.777 27.9066C119.336 28.0247 118.877 27.7518 118.756 27.2992C118.635 26.8467 118.895 26.381 119.336 26.2629C119.777 26.1447 120.236 26.4177 120.357 26.8702C120.416 27.0882 120.387 27.3198 120.278 27.5142C120.169 27.7085 119.989 27.8497 119.777 27.9066ZM128.013 25.6995C127.573 25.8177 127.114 25.5448 126.993 25.0922C126.871 24.6397 127.132 24.174 127.573 24.0558C128.014 23.9377 128.473 24.2106 128.594 24.6632C128.652 24.8811 128.624 25.1128 128.515 25.3071C128.406 25.5015 128.226 25.6426 128.013 25.6995Z" fill="currentColor"/>
<path d="M6.84 24.09C5.772 24.09 4.806 23.85 3.942 23.37C3.09 22.89 2.412 22.188 1.908 21.264C1.404 20.328 1.152 19.212 1.152 17.916C1.152 16.092 1.482 14.484 2.142 13.092C2.814 11.7 3.72 10.626 4.86 9.87C6.012 9.114 7.284 8.736 8.676 8.736C9.744 8.736 10.704 8.976 11.556 9.456C12.42 9.936 13.104 10.644 13.608 11.58C14.112 12.504 14.364 13.614 14.364 14.91C14.364 16.734 14.028 18.342 13.356 19.734C12.696 21.126 11.79 22.2 10.638 22.956C9.498 23.712 8.232 24.09 6.84 24.09ZM7.02 21.966C7.956 21.966 8.778 21.678 9.486 21.102C10.206 20.526 10.758 19.728 11.142 18.708C11.526 17.676 11.718 16.512 11.718 15.216C11.718 13.788 11.418 12.708 10.818 11.976C10.218 11.232 9.444 10.86 8.496 10.86C7.572 10.86 6.756 11.148 6.048 11.724C5.34 12.288 4.788 13.086 4.392 14.118C3.996 15.138 3.798 16.302 3.798 17.61C3.798 19.038 4.098 20.124 4.698 20.868C5.298 21.6 6.072 21.966 7.02 21.966ZM16.6615 24.09C16.2055 24.09 15.8815 23.85 15.6895 23.37C15.5095 22.89 15.4195 22.122 15.4195 21.066C15.4195 19.506 15.6415 18.024 16.0855 16.62C16.1935 16.272 16.3675 16.02 16.6075 15.864C16.8595 15.696 17.2075 15.612 17.6515 15.612C17.8915 15.612 18.0595 15.642 18.1555 15.702C18.2515 15.762 18.2995 15.876 18.2995 16.044C18.2995 16.236 18.2095 16.668 18.0295 17.34C17.9095 17.82 17.8135 18.24 17.7415 18.6C17.6695 18.96 17.6095 19.404 17.5615 19.932C17.9575 18.9 18.4015 18.06 18.8935 17.412C19.3855 16.764 19.8655 16.302 20.3335 16.026C20.8135 15.75 21.2515 15.612 21.6475 15.612C22.4275 15.612 22.8175 16.002 22.8175 16.782C22.8175 17.25 22.6855 18.096 22.4215 19.32C22.1935 20.364 22.0795 21.054 22.0795 21.39C22.0795 21.87 22.2535 22.11 22.6015 22.11C22.8415 22.11 23.1235 21.966 23.4475 21.678C23.7835 21.378 24.2275 20.898 24.7795 20.238C24.9235 20.07 25.0855 19.986 25.2655 19.986C25.4215 19.986 25.5415 20.058 25.6255 20.202C25.7215 20.346 25.7695 20.544 25.7695 20.796C25.7695 21.276 25.6555 21.648 25.4275 21.912C24.9115 22.548 24.3535 23.07 23.7535 23.478C23.1655 23.886 22.4935 24.09 21.7375 24.09C21.1255 24.09 20.6635 23.916 20.3515 23.568C20.0395 23.208 19.8835 22.692 19.8835 22.02C19.8835 21.684 19.9675 21.084 20.1355 20.22C20.2915 19.464 20.3695 18.942 20.3695 18.654C20.3695 18.462 20.3035 18.366 20.1715 18.366C20.0155 18.366 19.7935 18.57 19.5055 18.978C19.2295 19.374 18.9415 19.902 18.6415 20.562C18.3535 21.222 18.1195 21.918 17.9395 22.65C17.8075 23.214 17.6515 23.598 17.4715 23.802C17.3035 23.994 17.0335 24.09 16.6615 24.09ZM31.1352 19.986C31.2912 19.986 31.4112 20.058 31.4952 20.202C31.5912 20.346 31.6392 20.544 31.6392 20.796C31.6392 21.276 31.5252 21.648 31.2972 21.912C30.7812 22.548 30.2172 23.07 29.6052 23.478C29.0052 23.886 28.3212 24.09 27.5532 24.09C26.4972 24.09 25.7112 23.61 25.1952 22.65C24.6912 21.69 24.4392 20.448 24.4392 18.924C24.4392 17.46 24.6252 15.792 24.9972 13.92C25.3812 12.048 25.9392 10.44 26.6712 9.096C27.4152 7.752 28.2972 7.08 29.3172 7.08C29.8932 7.08 30.3432 7.35 30.6672 7.89C31.0032 8.418 31.1712 9.18 31.1712 10.176C31.1712 11.604 30.7752 13.26 29.9832 15.144C29.1912 17.028 28.1172 18.894 26.7612 20.742C26.8452 21.234 26.9832 21.588 27.1752 21.804C27.3672 22.008 27.6192 22.11 27.9312 22.11C28.4232 22.11 28.8552 21.972 29.2272 21.696C29.5992 21.408 30.0732 20.922 30.6492 20.238C30.7932 20.07 30.9552 19.986 31.1352 19.986ZM28.9212 8.862C28.6452 8.862 28.3332 9.36 27.9852 10.356C27.6372 11.352 27.3312 12.588 27.0672 14.064C26.8032 15.54 26.6592 16.956 26.6352 18.312C27.4872 16.908 28.1652 15.504 28.6692 14.1C29.1732 12.684 29.4252 11.394 29.4252 10.23C29.4252 9.318 29.2572 8.862 28.9212 8.862ZM32.5423 14.424C32.0383 14.424 31.6603 14.31 31.4083 14.082C31.1563 13.842 31.0303 13.512 31.0303 13.092C31.0303 12.672 31.1923 12.324 31.5163 12.048C31.8523 11.76 32.2663 11.616 32.7583 11.616C33.2023 11.616 33.5623 11.724 33.8383 11.94C34.1143 12.156 34.2523 12.462 34.2523 12.858C34.2523 13.338 34.0963 13.722 33.7843 14.01C33.4723 14.286 33.0583 14.424 32.5423 14.424ZM32.3983 24.09C31.6183 24.09 31.0483 23.814 30.6883 23.262C30.3403 22.71 30.1663 21.978 30.1663 21.066C30.1663 20.526 30.2323 19.836 30.3643 18.996C30.5083 18.144 30.6883 17.352 30.9043 16.62C31.0123 16.236 31.1563 15.972 31.3363 15.828C31.5163 15.684 31.8043 15.612 32.2003 15.612C32.8123 15.612 33.1183 15.816 33.1183 16.224C33.1183 16.524 33.0043 17.22 32.7763 18.312C32.4883 19.632 32.3443 20.526 32.3443 20.994C32.3443 21.354 32.3923 21.63 32.4883 21.822C32.5843 22.014 32.7463 22.11 32.9743 22.11C33.1903 22.11 33.4603 21.96 33.7843 21.66C34.1083 21.36 34.5403 20.886 35.0803 20.238C35.2243 20.07 35.3863 19.986 35.5663 19.986C35.7223 19.986 35.8423 20.058 35.9263 20.202C36.0223 20.346 36.0703 20.544 36.0703 20.796C36.0703 21.276 35.9563 21.648 35.7283 21.912C34.5403 23.364 33.4303 24.09 32.3983 24.09ZM42.642 19.986C42.798 19.986 42.918 20.058 43.002 20.202C43.098 20.346 43.146 20.544 43.146 20.796C43.146 21.276 43.032 21.648 42.804 21.912C42.36 22.452 41.73 22.95 40.914 23.406C40.11 23.862 39.246 24.09 38.322 24.09C37.062 24.09 36.084 23.748 35.388 23.064C34.692 22.38 34.344 21.444 34.344 20.256C34.344 19.428 34.518 18.66 34.866 17.952C35.214 17.232 35.694 16.662 36.306 16.242C36.93 15.822 37.632 15.612 38.412 15.612C39.108 15.612 39.666 15.822 40.086 16.242C40.506 16.65 40.716 17.208 40.716 17.916C40.716 18.744 40.416 19.458 39.816 20.058C39.228 20.646 38.226 21.114 36.81 21.462C37.11 22.014 37.68 22.29 38.52 22.29C39.06 22.29 39.672 22.104 40.356 21.732C41.052 21.348 41.652 20.85 42.156 20.238C42.3 20.07 42.462 19.986 42.642 19.986ZM38.106 17.376C37.662 17.376 37.284 17.634 36.972 18.15C36.672 18.666 36.522 19.29 36.522 20.022V20.058C37.23 19.89 37.788 19.638 38.196 19.302C38.604 18.966 38.808 18.576 38.808 18.132C38.808 17.904 38.742 17.724 38.61 17.592C38.49 17.448 38.322 17.376 38.106 17.376ZM46.7024 24.144C45.1064 24.144 43.8284 23.844 42.8684 23.244C41.9084 22.632 41.4284 21.702 41.4284 20.454C41.4284 19.794 41.5424 19.29 41.7704 18.942C41.9984 18.594 42.3344 18.42 42.7784 18.42C43.1024 18.42 43.3664 18.504 43.5704 18.672C43.7744 18.84 43.8764 19.056 43.8764 19.32C43.8764 19.56 43.8584 19.77 43.8224 19.95C43.8224 19.998 43.8104 20.082 43.7864 20.202C43.7744 20.322 43.7684 20.448 43.7684 20.58C43.7684 21.12 44.0384 21.522 44.5784 21.786C45.1304 22.05 45.8984 22.182 46.8824 22.182C47.9024 22.182 48.7004 22.002 49.2764 21.642C49.8524 21.27 50.1404 20.754 50.1404 20.094C50.1404 19.686 50.0084 19.338 49.7444 19.05C49.4804 18.75 49.1504 18.504 48.7544 18.312C48.3584 18.108 47.8004 17.862 47.0804 17.574C46.1564 17.214 45.4004 16.872 44.8124 16.548C44.2364 16.224 43.7384 15.786 43.3184 15.234C42.9104 14.67 42.7064 13.974 42.7064 13.146C42.7064 12.282 42.9344 11.514 43.3904 10.842C43.8584 10.17 44.5244 9.648 45.3884 9.276C46.2644 8.904 47.2904 8.718 48.4664 8.718C49.3424 8.718 50.1464 8.85 50.8784 9.114C51.6104 9.366 52.1924 9.756 52.6244 10.284C53.0684 10.812 53.2904 11.46 53.2904 12.228C53.2904 12.984 53.1764 13.554 52.9484 13.938C52.7204 14.322 52.3844 14.514 51.9404 14.514C51.6284 14.514 51.3644 14.418 51.1484 14.226C50.9444 14.034 50.8424 13.806 50.8424 13.542C50.8424 13.314 50.8604 13.104 50.8964 12.912C50.9324 12.552 50.9504 12.324 50.9504 12.228C50.9504 11.724 50.7044 11.34 50.2124 11.076C49.7204 10.812 49.1084 10.68 48.3764 10.68C47.3444 10.68 46.5524 10.872 46.0004 11.256C45.4604 11.628 45.1904 12.156 45.1904 12.84C45.1904 13.296 45.3284 13.686 45.6044 14.01C45.8924 14.334 46.2464 14.604 46.6664 14.82C47.0864 15.036 47.6744 15.294 48.4304 15.594C49.3424 15.966 50.0744 16.302 50.6264 16.602C51.1784 16.902 51.6464 17.31 52.0304 17.826C52.4264 18.342 52.6244 18.978 52.6244 19.734C52.6244 21.15 52.0844 22.242 51.0044 23.01C49.9364 23.766 48.5024 24.144 46.7024 24.144ZM63.9751 19.986C64.1311 19.986 64.2511 20.058 64.3351 20.202C64.4311 20.346 64.4791 20.544 64.4791 20.796C64.4791 21.276 64.3651 21.648 64.1371 21.912C63.5851 22.548 63.0151 23.07 62.4271 23.478C61.8511 23.886 61.1911 24.09 60.4471 24.09C59.8351 24.09 59.3731 23.916 59.0611 23.568C58.7491 23.208 58.5931 22.692 58.5931 22.02C58.5931 21.684 58.6771 21.084 58.8451 20.22C59.0011 19.464 59.0791 18.942 59.0791 18.654C59.0791 18.462 59.0131 18.366 58.8811 18.366C58.7251 18.366 58.5031 18.57 58.2151 18.978C57.9271 19.374 57.6391 19.902 57.3511 20.562C57.0631 21.222 56.8291 21.918 56.6491 22.65C56.4211 23.61 55.8571 24.09 54.9571 24.09C54.5971 24.09 54.3571 23.964 54.2371 23.712C54.1291 23.448 54.0751 22.98 54.0751 22.308C54.0751 21.924 54.0811 21.618 54.0931 21.39L54.1111 19.95C54.1111 18.102 54.2971 16.176 54.6691 14.172C55.0531 12.168 55.6111 10.488 56.3431 9.132C57.0871 7.764 57.9751 7.08 59.0071 7.08C59.5591 7.08 60.0031 7.32 60.3391 7.8C60.6871 8.268 60.8611 8.88 60.8611 9.636C60.8611 10.848 60.5071 12.108 59.7991 13.416C59.0911 14.712 57.9391 16.23 56.3431 17.97C56.3071 18.594 56.2891 19.236 56.2891 19.896C56.6851 18.876 57.1231 18.048 57.6031 17.412C58.0951 16.764 58.5751 16.302 59.0431 16.026C59.5231 15.75 59.9611 15.612 60.3571 15.612C61.1371 15.612 61.5271 16.002 61.5271 16.782C61.5271 17.25 61.3951 18.096 61.1311 19.32C60.9031 20.364 60.7891 21.054 60.7891 21.39C60.7891 21.87 60.9631 22.11 61.3111 22.11C61.5511 22.11 61.8331 21.966 62.1571 21.678C62.4931 21.378 62.9371 20.898 63.4891 20.238C63.6331 20.07 63.7951 19.986 63.9751 19.986ZM58.6291 8.862C58.4131 8.862 58.1731 9.174 57.9091 9.798C57.6451 10.41 57.3871 11.244 57.1351 12.3C56.8951 13.344 56.6971 14.484 56.5411 15.72C57.2851 14.844 57.8971 13.89 58.3771 12.858C58.8691 11.826 59.1151 10.89 59.1151 10.05C59.1151 9.666 59.0731 9.372 58.9891 9.168C58.9051 8.964 58.7851 8.862 58.6291 8.862ZM72.2003 18.474C72.3563 18.474 72.4763 18.552 72.5603 18.708C72.6443 18.864 72.6863 19.062 72.6863 19.302C72.6863 19.878 72.5123 20.22 72.1643 20.328C71.4443 20.58 70.6523 20.724 69.7883 20.76C69.5603 21.768 69.1103 22.578 68.4383 23.19C67.7663 23.79 67.0043 24.09 66.1523 24.09C65.4323 24.09 64.8143 23.916 64.2983 23.568C63.7943 23.22 63.4103 22.758 63.1463 22.182C62.8823 21.606 62.7502 20.982 62.7502 20.31C62.7502 19.398 62.9243 18.588 63.2723 17.88C63.6203 17.16 64.1003 16.602 64.7123 16.206C65.3243 15.798 66.0023 15.594 66.7463 15.594C67.6583 15.594 68.3903 15.912 68.9423 16.548C69.5063 17.172 69.8363 17.946 69.9323 18.87C70.4963 18.834 71.1683 18.714 71.9483 18.51C72.0443 18.486 72.1283 18.474 72.2003 18.474ZM66.2963 22.182C66.6803 22.182 67.0103 22.026 67.2863 21.714C67.5743 21.402 67.7663 20.952 67.8623 20.364C67.4903 20.112 67.2023 19.782 66.9983 19.374C66.8063 18.966 66.7103 18.534 66.7103 18.078C66.7103 17.886 66.7283 17.694 66.7643 17.502H66.6743C66.1943 17.502 65.7923 17.736 65.4683 18.204C65.1563 18.66 65.0003 19.308 65.0003 20.148C65.0003 20.808 65.1263 21.312 65.3783 21.66C65.6423 22.008 65.9483 22.182 66.2963 22.182ZM80.7533 19.986C80.9093 19.986 81.0293 20.058 81.1133 20.202C81.2093 20.346 81.2573 20.544 81.2573 20.796C81.2573 21.276 81.1433 21.648 80.9153 21.912C80.3993 22.548 79.8413 23.07 79.2413 23.478C78.6533 23.886 77.9813 24.09 77.2253 24.09C76.5893 24.09 76.0733 23.862 75.6773 23.406C74.9933 23.85 74.2793 24.078 73.5353 24.09C73.3793 26.406 73.0253 28.338 72.4733 29.886C71.9213 31.446 71.1113 32.226 70.0433 32.226C69.3953 32.226 68.9153 31.992 68.6033 31.524C68.2913 31.056 68.1353 30.408 68.1353 29.58C68.1353 28.404 68.4053 27.03 68.9453 25.458C69.4853 23.898 70.3193 22.176 71.4473 20.292C71.4473 18.54 71.4353 17.322 71.4113 16.638C71.3993 16.29 71.5373 16.014 71.8253 15.81C72.1133 15.606 72.4733 15.504 72.9053 15.504C73.1573 15.504 73.3373 15.558 73.4453 15.666C73.5653 15.762 73.6313 15.96 73.6433 16.26C73.6433 16.56 73.6493 16.782 73.6613 16.926C74.0453 16.446 74.4233 16.104 74.7953 15.9C75.1673 15.684 75.5633 15.576 75.9833 15.576C76.6553 15.576 77.2013 15.846 77.6213 16.386C78.0533 16.926 78.2693 17.634 78.2693 18.51C78.2693 19.146 78.1673 19.764 77.9633 20.364C77.7593 20.964 77.4773 21.51 77.1173 22.002C77.3693 22.074 77.5793 22.11 77.7473 22.11C78.1433 22.11 78.5213 21.966 78.8813 21.678C79.2413 21.39 79.7033 20.91 80.2673 20.238C80.4113 20.07 80.5733 19.986 80.7533 19.986ZM73.6253 22.362C74.0573 22.266 74.4533 22.032 74.8133 21.66C75.1853 21.276 75.4793 20.808 75.6953 20.256C75.9113 19.692 76.0193 19.104 76.0193 18.492C76.0193 18.132 75.9473 17.862 75.8033 17.682C75.6593 17.49 75.4673 17.394 75.2273 17.394C74.7953 17.394 74.2733 17.85 73.6613 18.762C73.6493 19.29 73.6433 20.064 73.6433 21.084C73.6433 21.636 73.6373 22.062 73.6253 22.362ZM70.1873 30.462C70.5113 30.462 70.7813 29.754 70.9973 28.338C71.2133 26.934 71.3513 25.182 71.4113 23.082C70.8953 24.282 70.4873 25.428 70.1873 26.52C69.8873 27.612 69.7373 28.53 69.7373 29.274C69.7373 29.658 69.7853 29.952 69.8813 30.156C69.9653 30.36 70.0673 30.462 70.1873 30.462ZM89.4194 19.986C89.5754 19.986 89.6954 20.058 89.7794 20.202C89.8754 20.346 89.9234 20.544 89.9234 20.796C89.9234 21.276 89.8094 21.648 89.5814 21.912C89.0654 22.548 88.5074 23.07 87.9074 23.478C87.3194 23.886 86.6474 24.09 85.8914 24.09C85.2554 24.09 84.7394 23.862 84.3434 23.406C83.6594 23.85 82.9454 24.078 82.2014 24.09C82.0454 26.406 81.6914 28.338 81.1394 29.886C80.5874 31.446 79.7774 32.226 78.7094 32.226C78.0614 32.226 77.5814 31.992 77.2694 31.524C76.9574 31.056 76.8014 30.408 76.8014 29.58C76.8014 28.404 77.0714 27.03 77.6114 25.458C78.1514 23.898 78.9854 22.176 80.1134 20.292C80.1134 18.54 80.1014 17.322 80.0774 16.638C80.0654 16.29 80.2034 16.014 80.4914 15.81C80.7794 15.606 81.1394 15.504 81.5714 15.504C81.8234 15.504 82.0034 15.558 82.1114 15.666C82.2314 15.762 82.2974 15.96 82.3094 16.26C82.3094 16.56 82.3154 16.782 82.3274 16.926C82.7114 16.446 83.0894 16.104 83.4614 15.9C83.8334 15.684 84.2294 15.576 84.6494 15.576C85.3214 15.576 85.8674 15.846 86.2874 16.386C86.7194 16.926 86.9354 17.634 86.9354 18.51C86.9354 19.146 86.8334 19.764 86.6294 20.364C86.4254 20.964 86.1434 21.51 85.7834 22.002C86.0354 22.074 86.2454 22.11 86.4134 22.11C86.8094 22.11 87.1874 21.966 87.5474 21.678C87.9074 21.39 88.3694 20.91 88.9334 20.238C89.0774 20.07 89.2394 19.986 89.4194 19.986ZM82.2914 22.362C82.7234 22.266 83.1194 22.032 83.4794 21.66C83.8514 21.276 84.1454 20.808 84.3614 20.256C84.5774 19.692 84.6854 19.104 84.6854 18.492C84.6854 18.132 84.6134 17.862 84.4694 17.682C84.3254 17.49 84.1334 17.394 83.8934 17.394C83.4614 17.394 82.9394 17.85 82.3274 18.762C82.3154 19.29 82.3094 20.064 82.3094 21.084C82.3094 21.636 82.3034 22.062 82.2914 22.362ZM78.8534 30.462C79.1774 30.462 79.4474 29.754 79.6634 28.338C79.8794 26.934 80.0174 25.182 80.0774 23.082C79.5614 24.282 79.1534 25.428 78.8534 26.52C78.5534 27.612 78.4034 28.53 78.4034 29.274C78.4034 29.658 78.4514 29.952 78.5474 30.156C78.6314 30.36 78.7334 30.462 78.8534 30.462ZM90.8314 14.424C90.3274 14.424 89.9494 14.31 89.6974 14.082C89.4454 13.842 89.3194 13.512 89.3194 13.092C89.3194 12.672 89.4814 12.324 89.8054 12.048C90.1414 11.76 90.5554 11.616 91.0474 11.616C91.4914 11.616 91.8514 11.724 92.1274 11.94C92.4034 12.156 92.5414 12.462 92.5414 12.858C92.5414 13.338 92.3854 13.722 92.0734 14.01C91.7614 14.286 91.3474 14.424 90.8314 14.424ZM90.6874 24.09C89.9074 24.09 89.3374 23.814 88.9774 23.262C88.6294 22.71 88.4554 21.978 88.4554 21.066C88.4554 20.526 88.5214 19.836 88.6534 18.996C88.7974 18.144 88.9774 17.352 89.1934 16.62C89.3014 16.236 89.4454 15.972 89.6254 15.828C89.8054 15.684 90.0934 15.612 90.4894 15.612C91.1014 15.612 91.4074 15.816 91.4074 16.224C91.4074 16.524 91.2934 17.22 91.0654 18.312C90.7774 19.632 90.6334 20.526 90.6334 20.994C90.6334 21.354 90.6814 21.63 90.7774 21.822C90.8734 22.014 91.0354 22.11 91.2634 22.11C91.4794 22.11 91.7494 21.96 92.0734 21.66C92.3974 21.36 92.8294 20.886 93.3694 20.238C93.5134 20.07 93.6754 19.986 93.8554 19.986C94.0114 19.986 94.1314 20.058 94.2154 20.202C94.3114 20.346 94.3594 20.544 94.3594 20.796C94.3594 21.276 94.2454 21.648 94.0174 21.912C92.8294 23.364 91.7194 24.09 90.6874 24.09ZM94.1811 24.09C93.7251 24.09 93.4011 23.85 93.2091 23.37C93.0291 22.89 92.9391 22.122 92.9391 21.066C92.9391 19.506 93.1611 18.024 93.6051 16.62C93.7131 16.272 93.8871 16.02 94.1271 15.864C94.3791 15.696 94.7271 15.612 95.1711 15.612C95.4111 15.612 95.5791 15.642 95.6751 15.702C95.7711 15.762 95.8191 15.876 95.8191 16.044C95.8191 16.236 95.7291 16.668 95.5491 17.34C95.4291 17.82 95.3331 18.24 95.2611 18.6C95.1891 18.96 95.1291 19.404 95.0811 19.932C95.4771 18.9 95.9211 18.06 96.4131 17.412C96.9051 16.764 97.3851 16.302 97.8531 16.026C98.3331 15.75 98.7711 15.612 99.1671 15.612C99.9471 15.612 100.337 16.002 100.337 16.782C100.337 17.25 100.205 18.096 99.9411 19.32C99.7131 20.364 99.5991 21.054 99.5991 21.39C99.5991 21.87 99.7731 22.11 100.121 22.11C100.361 22.11 100.643 21.966 100.967 21.678C101.303 21.378 101.747 20.898 102.299 20.238C102.443 20.07 102.605 19.986 102.785 19.986C102.941 19.986 103.061 20.058 103.145 20.202C103.241 20.346 103.289 20.544 103.289 20.796C103.289 21.276 103.175 21.648 102.947 21.912C102.431 22.548 101.873 23.07 101.273 23.478C100.685 23.886 100.013 24.09 99.2571 24.09C98.6451 24.09 98.1831 23.916 97.8711 23.568C97.5591 23.208 97.4031 22.692 97.4031 22.02C97.4031 21.684 97.4871 21.084 97.6551 20.22C97.8111 19.464 97.8891 18.942 97.8891 18.654C97.8891 18.462 97.8231 18.366 97.6911 18.366C97.5351 18.366 97.3131 18.57 97.0251 18.978C96.7491 19.374 96.4611 19.902 96.1611 20.562C95.8731 21.222 95.6391 21.918 95.4591 22.65C95.3271 23.214 95.1711 23.598 94.9911 23.802C94.8231 23.994 94.5531 24.09 94.1811 24.09ZM107.935 16.206C108.235 16.206 108.445 16.254 108.565 16.35C108.697 16.434 108.763 16.608 108.763 16.872C108.763 17.016 108.757 17.13 108.745 17.214C108.697 17.586 108.547 18.546 108.295 20.094C108.115 21.138 108.001 21.828 107.953 22.164C107.497 25.26 106.879 27.702 106.099 29.49C105.331 31.29 104.299 32.19 103.003 32.19C102.391 32.19 101.893 31.998 101.509 31.614C101.125 31.242 100.933 30.75 100.933 30.138C100.933 29.286 101.269 28.368 101.941 27.384C102.613 26.412 103.873 25.212 105.721 23.784L105.829 23.082C105.625 23.406 105.355 23.658 105.019 23.838C104.695 24.006 104.371 24.09 104.047 24.09C103.303 24.09 102.709 23.82 102.265 23.28C101.821 22.74 101.599 22.032 101.599 21.156C101.599 20.196 101.821 19.29 102.265 18.438C102.709 17.574 103.297 16.884 104.029 16.368C104.773 15.84 105.559 15.576 106.387 15.576C106.651 15.576 106.825 15.63 106.909 15.738C107.005 15.834 107.083 16.014 107.143 16.278C107.371 16.23 107.635 16.206 107.935 16.206ZM104.695 22.272C104.971 22.272 105.235 22.104 105.487 21.768C105.739 21.432 105.919 20.952 106.027 20.328L106.603 17.25C106.111 17.262 105.655 17.454 105.235 17.826C104.815 18.186 104.479 18.666 104.227 19.266C103.975 19.866 103.849 20.502 103.849 21.174C103.849 21.546 103.921 21.822 104.065 22.002C104.221 22.182 104.431 22.272 104.695 22.272ZM103.201 30.444C103.501 30.444 103.837 30.084 104.209 29.364C104.593 28.644 104.959 27.498 105.307 25.926C104.383 26.718 103.717 27.432 103.309 28.068C102.901 28.704 102.697 29.262 102.697 29.742C102.697 29.946 102.733 30.114 102.805 30.246C102.889 30.378 103.021 30.444 103.201 30.444Z" fill="currentColor"/>
</symbol>
</svg>
