<svg width="122" height="122" viewBox="0 0 122 122" fill="none" xmlns="http://www.w3.org/2000/svg">
<path d="M20.3333 101.667H30.5V50.8334C30.5 49.4852 31.0355 48.1923 31.9888 47.239C32.9421 46.2856 34.2351 45.7501 35.5833 45.7501H96.5833V35.5834C96.5833 34.2352 96.0477 32.9423 95.0944 31.989C94.1411 31.0356 92.8481 30.5001 91.5 30.5001H75.9907C74.7097 19.0931 65.1175 10.1667 53.375 10.1667C41.6325 10.1667 32.0402 19.0931 30.7592 30.5001H15.25C13.9018 30.5001 12.6088 31.0356 11.6555 31.989C10.7022 32.9423 10.1666 34.2352 10.1666 35.5834V91.5001C10.1666 94.1965 11.2378 96.7824 13.1444 98.689C15.051 100.596 17.6369 101.667 20.3333 101.667ZM53.375 20.3334C59.5105 20.3334 64.6498 24.7051 65.8291 30.5001H40.9208C42.1001 24.7051 47.2394 20.3334 53.375 20.3334Z" fill="#B9B9B9"/>
<path d="M106.75 55.9167H45.75C44.4018 55.9167 43.1088 56.4523 42.1555 57.4056C41.2022 58.3589 40.6666 59.6519 40.6666 61.0001V101.667C40.6666 104.363 41.7378 106.949 43.6444 108.856C45.551 110.762 48.1369 111.833 50.8333 111.833H101.667C104.363 111.833 106.949 110.762 108.856 108.856C110.762 106.949 111.833 104.363 111.833 101.667V61.0001C111.833 59.6519 111.298 58.3589 110.344 57.4056C109.391 56.4523 108.098 55.9167 106.75 55.9167ZM76.25 91.5001C62.2352 91.5001 50.8333 80.0982 50.8333 66.0834H61C61 74.4912 67.8421 81.3334 76.25 81.3334C84.6578 81.3334 91.5 74.4912 91.5 66.0834H101.667C101.667 80.0982 90.2647 91.5001 76.25 91.5001Z" fill="#B9B9B9"/>
</svg>
