<svg xmlns="http://www.w3.org/2000/svg">
<symbol id="heart" width="1em" height="1em" viewBox="0 0 16 16" fill="inherit">
<path d="M14.4219 4.43126C14.2124 3.94632 13.9104 3.50687 13.5328 3.13751C13.1549 2.76705 12.7093 2.47265 12.2203 2.27032C11.7132 2.05969 11.1694 1.95187 10.6203 1.95314C9.85 1.95314 9.09844 2.16407 8.44531 2.56251C8.28906 2.65782 8.14062 2.76251 8 2.87657C7.85938 2.76251 7.71094 2.65782 7.55469 2.56251C6.90156 2.16407 6.15 1.95314 5.37969 1.95314C4.825 1.95314 4.2875 2.05939 3.77969 2.27032C3.28906 2.47345 2.84687 2.76564 2.46719 3.13751C2.08906 3.50645 1.787 3.94601 1.57812 4.43126C1.36094 4.93595 1.25 5.47189 1.25 6.02345C1.25 6.54376 1.35625 7.08595 1.56719 7.63751C1.74375 8.09845 1.99687 8.57657 2.32031 9.05939C2.83281 9.82345 3.5375 10.6203 4.4125 11.4281C5.8625 12.7672 7.29844 13.6922 7.35938 13.7297L7.72969 13.9672C7.89375 14.0719 8.10469 14.0719 8.26875 13.9672L8.63906 13.7297C8.7 13.6906 10.1344 12.7672 11.5859 11.4281C12.4609 10.6203 13.1656 9.82345 13.6781 9.05939C14.0016 8.57657 14.2562 8.09845 14.4312 7.63751C14.6422 7.08595 14.7484 6.54376 14.7484 6.02345C14.75 5.47189 14.6391 4.93595 14.4219 4.43126V4.43126Z" fill="inherit" stroke="currentColor" />
</symbol>
<symbol id="fb" width="1em" height="1em" viewBox="0 0 24 24" fill="none">
<path d="M13.397 20.997V12.801H16.162L16.573 9.59199H13.397V7.54799C13.397 6.62199 13.655 5.98799 14.984 5.98799H16.668V3.12699C15.8486 3.03918 15.025 2.99678 14.201 2.99999C11.757 2.99999 10.079 4.49199 10.079 7.23099V9.58599H7.332V12.795H10.085V20.997H13.397Z" fill="currentColor"/>
</symbol>
<symbol id="insta" width="1em" height="1em" viewBox="0 0 24 24" fill="none">
<path fill-rule="evenodd" clip-rule="evenodd" d="M7.465 1.066C8.638 1.012 9.012 1 12 1C14.988 1 15.362 1.013 16.534 1.066C17.706 1.119 18.506 1.306 19.206 1.577C19.939 1.854 20.604 2.287 21.154 2.847C21.714 3.396 22.146 4.06 22.422 4.794C22.694 5.494 22.88 6.294 22.934 7.464C22.988 8.639 23 9.013 23 12C23 14.988 22.987 15.362 22.934 16.535C22.881 17.705 22.694 18.505 22.422 19.205C22.146 19.9391 21.7133 20.6042 21.154 21.154C20.604 21.714 19.939 22.146 19.206 22.422C18.506 22.694 17.706 22.88 16.536 22.934C15.362 22.988 14.988 23 12 23C9.012 23 8.638 22.987 7.465 22.934C6.295 22.881 5.495 22.694 4.795 22.422C4.06092 22.146 3.39582 21.7133 2.846 21.154C2.28638 20.6047 1.85331 19.9399 1.577 19.206C1.306 18.506 1.12 17.706 1.066 16.536C1.012 15.361 1 14.987 1 12C1 9.012 1.013 8.638 1.066 7.466C1.119 6.294 1.306 5.494 1.577 4.794C1.85372 4.06008 2.28712 3.39531 2.847 2.846C3.39604 2.2865 4.06047 1.85344 4.794 1.577C5.494 1.306 6.294 1.12 7.464 1.066H7.465ZM16.445 3.046C15.285 2.993 14.937 2.982 12 2.982C9.063 2.982 8.715 2.993 7.555 3.046C6.482 3.095 5.9 3.274 5.512 3.425C4.999 3.625 4.632 3.862 4.247 4.247C3.88205 4.60205 3.60118 5.03428 3.425 5.512C3.274 5.9 3.095 6.482 3.046 7.555C2.993 8.715 2.982 9.063 2.982 12C2.982 14.937 2.993 15.285 3.046 16.445C3.095 17.518 3.274 18.1 3.425 18.488C3.601 18.965 3.882 19.398 4.247 19.753C4.602 20.118 5.035 20.399 5.512 20.575C5.9 20.726 6.482 20.905 7.555 20.954C8.715 21.007 9.062 21.018 12 21.018C14.938 21.018 15.285 21.007 16.445 20.954C17.518 20.905 18.1 20.726 18.488 20.575C19.001 20.375 19.368 20.138 19.753 19.753C20.118 19.398 20.399 18.965 20.575 18.488C20.726 18.1 20.905 17.518 20.954 16.445C21.007 15.285 21.018 14.937 21.018 12C21.018 9.063 21.007 8.715 20.954 7.555C20.905 6.482 20.726 5.9 20.575 5.512C20.375 4.999 20.138 4.632 19.753 4.247C19.3979 3.88207 18.9657 3.60121 18.488 3.425C18.1 3.274 17.518 3.095 16.445 3.046V3.046ZM10.595 15.391C11.3797 15.7176 12.2534 15.7617 13.0669 15.5157C13.8805 15.2697 14.5834 14.7489 15.0556 14.0422C15.5278 13.3356 15.7401 12.4869 15.656 11.6411C15.572 10.7953 15.197 10.005 14.595 9.405C14.2112 9.02148 13.7472 8.72781 13.2363 8.54515C12.7255 8.36248 12.1804 8.29536 11.6405 8.34862C11.1006 8.40187 10.5792 8.57418 10.1138 8.85313C9.64846 9.13208 9.25074 9.51074 8.9493 9.96185C8.64786 10.413 8.45019 10.9253 8.37052 11.462C8.29084 11.9986 8.33115 12.5463 8.48854 13.0655C8.64593 13.5847 8.91648 14.0626 9.28072 14.4647C9.64496 14.8668 10.0938 15.1832 10.595 15.391ZM8.002 8.002C8.52702 7.47698 9.15032 7.0605 9.8363 6.77636C10.5223 6.49222 11.2575 6.34597 12 6.34597C12.7425 6.34597 13.4777 6.49222 14.1637 6.77636C14.8497 7.0605 15.473 7.47698 15.998 8.002C16.523 8.52702 16.9395 9.15032 17.2236 9.8363C17.5078 10.5223 17.654 11.2575 17.654 12C17.654 12.7425 17.5078 13.4777 17.2236 14.1637C16.9395 14.8497 16.523 15.473 15.998 15.998C14.9377 17.0583 13.4995 17.654 12 17.654C10.5005 17.654 9.06234 17.0583 8.002 15.998C6.94166 14.9377 6.34597 13.4995 6.34597 12C6.34597 10.5005 6.94166 9.06234 8.002 8.002V8.002ZM18.908 7.188C19.0381 7.06527 19.1423 6.91768 19.2143 6.75397C19.2863 6.59027 19.3248 6.41377 19.3274 6.23493C19.33 6.05609 19.2967 5.87855 19.2295 5.71281C19.1622 5.54707 19.0624 5.39651 18.936 5.27004C18.8095 5.14357 18.6589 5.04376 18.4932 4.97652C18.3275 4.90928 18.1499 4.87598 17.9711 4.87858C17.7922 4.88119 17.6157 4.91965 17.452 4.9917C17.2883 5.06374 17.1407 5.1679 17.018 5.298C16.7793 5.55103 16.6486 5.88712 16.6537 6.23493C16.6588 6.58274 16.7992 6.91488 17.0452 7.16084C17.2911 7.40681 17.6233 7.54723 17.9711 7.5523C18.3189 7.55737 18.655 7.42669 18.908 7.188V7.188Z" fill="currentColor"/>
</symbol>
<symbol id="pinterest" width="1em" height="1em" viewBox="0 0 24 24" fill="none">
<path d="M5.077 9.45702C5.077 8.67902 5.213 7.94402 5.481 7.25802C5.73705 6.59172 6.11748 5.98019 6.602 5.45602C7.08553 4.93873 7.63887 4.49142 8.246 4.12702C8.86891 3.75017 9.5433 3.46587 10.248 3.28302C10.9612 3.09574 11.6956 3.00129 12.433 3.00202C13.572 3.00202 14.632 3.24302 15.615 3.72302C16.5852 4.19427 17.4109 4.91746 18.006 5.81702C18.62 6.73202 18.925 7.76702 18.925 8.92102C18.925 9.61302 18.857 10.29 18.718 10.952C18.5815 11.6137 18.3646 12.2561 18.072 12.865C17.7931 13.4545 17.4285 13.9994 16.99 14.482C16.5493 14.957 16.0155 15.3362 15.422 15.596C14.7776 15.8784 14.0805 16.0206 13.377 16.013C12.888 16.013 12.4 15.898 11.918 15.667C11.436 15.437 11.09 15.121 10.882 14.716C10.809 14.997 10.709 15.403 10.576 15.934C10.448 16.464 10.362 16.806 10.324 16.961C10.284 17.115 10.21 17.372 10.102 17.728C10.0288 17.9914 9.9348 18.2485 9.821 18.497L9.477 19.171C9.32823 19.4602 9.16192 19.7401 8.979 20.009C8.798 20.271 8.574 20.584 8.307 20.944L8.158 20.997L8.059 20.889C7.952 19.756 7.897 19.078 7.897 18.854C7.897 18.191 7.976 17.447 8.132 16.621C8.285 15.796 8.527 14.759 8.852 13.512C9.177 12.266 9.363 11.533 9.413 11.316C9.184 10.849 9.068 10.239 9.068 9.48902C9.068 8.89002 9.255 8.32902 9.63 7.80102C10.006 7.27502 10.481 7.01202 11.057 7.01202C11.498 7.01202 11.84 7.15802 12.085 7.45102C12.331 7.74302 12.451 8.11102 12.451 8.56002C12.451 9.03602 12.293 9.72502 11.975 10.626C11.657 11.528 11.499 12.201 11.499 12.648C11.499 13.101 11.661 13.48 11.985 13.777C12.3047 14.0742 12.7276 14.2352 13.164 14.226C13.56 14.226 13.927 14.136 14.268 13.955C14.6037 13.7793 14.8942 13.5285 15.117 13.222C15.6022 12.5563 15.9481 11.7995 16.134 10.997C16.23 10.575 16.304 10.174 16.35 9.79702C16.399 9.41802 16.42 9.06002 16.42 8.72002C16.42 7.47302 16.024 6.50102 15.237 5.80502C14.446 5.10902 13.416 4.76302 12.149 4.76302C10.708 4.76302 9.503 5.22902 8.538 6.16402C7.572 7.09602 7.086 8.28102 7.086 9.71802C7.086 10.035 7.134 10.341 7.225 10.637C7.314 10.932 7.411 11.167 7.516 11.341C7.62 11.512 7.718 11.679 7.807 11.833C7.897 11.987 7.944 12.097 7.944 12.163C7.944 12.365 7.891 12.628 7.784 12.953C7.673 13.278 7.542 13.44 7.384 13.44C7.369 13.44 7.307 13.429 7.199 13.406C6.82496 13.2944 6.48717 13.0856 6.22 12.801C5.93644 12.5061 5.71265 12.159 5.561 11.779C5.40978 11.4004 5.29199 11.0092 5.209 10.61C5.11933 10.2323 5.07502 9.84523 5.077 9.45702V9.45702Z" fill="currentColor"/>
</symbol>
<symbol id="twitter" width="1em" height="1em" viewBox="0 0 24 20" fill="none">
<path d="M23.643 2.93702C22.808 3.30702 21.911 3.55702 20.968 3.67002C21.941 3.08781 22.6689 2.17148 23.016 1.09202C22.1018 1.63501 21.1013 2.01721 20.058 2.22202C19.3564 1.47288 18.4271 0.976342 17.4143 0.80949C16.4016 0.642638 15.3621 0.814807 14.4572 1.29927C13.5524 1.78373 12.8328 2.55338 12.4102 3.48872C11.9875 4.42406 11.8855 5.47277 12.12 6.47202C10.2677 6.37901 8.45562 5.89757 6.80142 5.05892C5.14722 4.22028 3.68784 3.04318 2.518 1.60402C2.118 2.29402 1.888 3.09402 1.888 3.94602C1.88755 4.71301 2.07643 5.46826 2.43788 6.14475C2.79932 6.82124 3.32216 7.39805 3.96 7.82402C3.22027 7.80048 2.49687 7.6006 1.85 7.24102V7.30102C1.84992 8.37676 2.22203 9.41939 2.90318 10.252C3.58433 11.0846 4.53257 11.6559 5.587 11.869C4.90078 12.0547 4.18133 12.0821 3.483 11.949C3.78049 12.8746 4.35999 13.684 5.14036 14.2639C5.92074 14.8438 6.86291 15.1652 7.835 15.183C6.18483 16.4784 4.14688 17.1811 2.049 17.178C1.67738 17.1781 1.30607 17.1564 0.936996 17.113C3.06647 18.4822 5.54534 19.2088 8.077 19.206C16.647 19.206 21.332 12.108 21.332 5.95202C21.332 5.75202 21.327 5.55002 21.318 5.35002C22.2293 4.69099 23.0159 3.87491 23.641 2.94002L23.643 2.93702V2.93702Z" fill="currentColor"/>
</symbol>
<symbol id="chevron-right" width="1em" height="1em" viewBox="0 0 8 12" fill="none">
<path d="M1.414 11.414L7.121 5.707L1.414 0L0 1.414L4.293 5.707L0 10L1.414 11.414Z" fill="currentColor"/>
</symbol>
<symbol id="search" width="1em" height="1em" viewBox="0 0 24 24" fill="none">
<path d="M21 21L16.514 16.506L21 21ZM19 10.5C19 12.7543 18.1045 14.9163 16.5104 16.5104C14.9163 18.1045 12.7543 19 10.5 19C8.24566 19 6.08365 18.1045 4.48959 16.5104C2.89553 14.9163 2 12.7543 2 10.5C2 8.24566 2.89553 6.08365 4.48959 4.48959C6.08365 2.89553 8.24566 2 10.5 2C12.7543 2 14.9163 2.89553 16.5104 4.48959C18.1045 6.08365 19 8.24566 19 10.5V10.5Z" stroke="currentColor" stroke-width="2" stroke-linecap="round"/>
</symbol>
<symbol id="cart" width="1em" height="1em" viewBox="0 0 32 32" fill="none">
<path d="M27 23H10L5 2H2M6 6H30L27 19H9L6 6Z" stroke="currentColor" stroke-width="2" stroke-linecap="round" stroke-linejoin="round"/>
<path d="M25 29C26.1046 29 27 28.1046 27 27C27 25.8954 26.1046 25 25 25C23.8954 25 23 25.8954 23 27C23 28.1046 23.8954 29 25 29Z" stroke="currentColor" stroke-width="2" stroke-linecap="round" stroke-linejoin="round"/>
<path d="M12 29C13.1046 29 14 28.1046 14 27C14 25.8954 13.1046 25 12 25C10.8954 25 10 25.8954 10 27C10 28.1046 10.8954 29 12 29Z" stroke="currentColor" stroke-width="2" stroke-linecap="round" stroke-linejoin="round"/>
</symbol>
<symbol id="quotes-left" width="1em" height="1em" viewBox="0 0 24 24" fill="none">
<path d="M6.49999 10C6.27699 10 6.06299 10.034 5.84999 10.065C5.91899 9.83303 5.98999 9.59703 6.10399 9.38503C6.21799 9.07703 6.39599 8.81003 6.57299 8.54103C6.72099 8.25003 6.98199 8.05303 7.17399 7.80403C7.37499 7.56203 7.64899 7.40103 7.86599 7.20003C8.07899 6.99003 8.35799 6.88503 8.57999 6.73703C8.81199 6.60403 9.01399 6.45703 9.22999 6.38703L9.76899 6.16503L10.243 5.96803L9.75799 4.03003L9.16099 4.17403C8.96999 4.22203 8.73699 4.27803 8.47199 4.34503C8.20099 4.39503 7.91199 4.53203 7.58999 4.65703C7.27199 4.79903 6.90399 4.89503 6.56199 5.12303C6.21799 5.34103 5.82099 5.52303 5.47099 5.81503C5.13199 6.11603 4.72299 6.37703 4.42099 6.76003C4.09099 7.11803 3.76499 7.49403 3.51199 7.92203C3.21899 8.33003 3.01999 8.77803 2.80999 9.22103C2.61999 9.66403 2.46699 10.117 2.34199 10.557C2.10499 11.439 1.99899 12.277 1.95799 12.994C1.92399 13.712 1.94399 14.309 1.98599 14.741C2.00099 14.945 2.02899 15.143 2.04899 15.28L2.07399 15.448L2.09999 15.442C2.27785 16.2729 2.6873 17.0364 3.28096 17.6442C3.87462 18.2521 4.62823 18.6794 5.45463 18.8769C6.28103 19.0743 7.14644 19.0337 7.95075 18.7599C8.75506 18.486 9.4654 17.99 9.9996 17.3293C10.5338 16.6686 10.87 15.8701 10.9694 15.0263C11.0688 14.1825 10.9272 13.3278 10.5611 12.5611C10.195 11.7943 9.61933 11.1469 8.90064 10.6937C8.18196 10.2405 7.34965 9.99997 6.49999 10V10ZM17.5 10C17.277 10 17.063 10.034 16.85 10.065C16.919 9.83303 16.99 9.59703 17.104 9.38503C17.218 9.07703 17.396 8.81003 17.573 8.54103C17.721 8.25003 17.982 8.05303 18.174 7.80403C18.375 7.56203 18.649 7.40103 18.866 7.20003C19.079 6.99003 19.358 6.88503 19.58 6.73703C19.812 6.60403 20.014 6.45703 20.23 6.38703L20.769 6.16503L21.243 5.96803L20.758 4.03003L20.161 4.17403C19.97 4.22203 19.737 4.27803 19.472 4.34503C19.201 4.39503 18.912 4.53203 18.59 4.65703C18.273 4.80003 17.904 4.89503 17.562 5.12403C17.218 5.34203 16.821 5.52403 16.471 5.81603C16.132 6.11703 15.723 6.37803 15.421 6.76003C15.091 7.11803 14.765 7.49403 14.512 7.92203C14.219 8.33003 14.02 8.77803 13.81 9.22103C13.62 9.66403 13.467 10.117 13.342 10.557C13.105 11.439 12.999 12.277 12.958 12.994C12.924 13.712 12.944 14.309 12.986 14.741C13.001 14.945 13.029 15.143 13.049 15.28L13.074 15.448L13.1 15.442C13.2779 16.2729 13.6873 17.0364 14.281 17.6442C14.8746 18.2521 15.6282 18.6794 16.4546 18.8769C17.281 19.0743 18.1464 19.0337 18.9507 18.7599C19.7551 18.486 20.4654 17.99 20.9996 17.3293C21.5338 16.6686 21.87 15.8701 21.9694 15.0263C22.0688 14.1825 21.9272 13.3278 21.5611 12.5611C21.195 11.7943 20.6193 11.1469 19.9006 10.6937C19.182 10.2405 18.3496 9.99997 17.5 10V10Z" fill="currentColor"/>
</symbol>
<symbol id="quotes-right" width="1em" height="1em" viewBox="0 0 24 24" fill="none">
<path d="M21.95 8.721L21.925 8.553L21.899 8.559C21.7213 7.72804 21.312 6.96437 20.7183 6.35635C20.1247 5.74833 19.3711 5.32082 18.5446 5.12328C17.7181 4.92574 16.8526 4.96625 16.0482 5.24011C15.2438 5.51397 14.5334 6.00999 13.9991 6.67079C13.4649 7.33159 13.1286 8.13015 13.0293 8.97408C12.93 9.818 13.0717 10.6728 13.4379 11.4396C13.8042 12.2063 14.3801 12.8537 15.0989 13.3068C15.8178 13.76 16.6502 14.0003 17.5 14C17.723 14 17.937 13.966 18.15 13.935C18.081 14.167 18.01 14.403 17.896 14.615C17.782 14.923 17.604 15.19 17.427 15.459C17.279 15.75 17.018 15.947 16.826 16.196C16.625 16.438 16.351 16.599 16.134 16.8C15.921 17.01 15.642 17.115 15.42 17.263C15.188 17.396 14.986 17.543 14.77 17.613L14.231 17.835L13.757 18.032L14.241 19.971L14.838 19.827C15.029 19.779 15.262 19.723 15.527 19.656C15.798 19.606 16.087 19.469 16.409 19.344C16.726 19.201 17.095 19.106 17.437 18.877C17.781 18.659 18.178 18.477 18.528 18.185C18.867 17.884 19.276 17.623 19.578 17.241C19.908 16.883 20.234 16.507 20.487 16.079C20.78 15.671 20.979 15.223 21.189 14.78C21.379 14.337 21.532 13.884 21.657 13.444C21.894 12.562 22 11.724 22.041 11.007C22.075 10.289 22.055 9.692 22.013 9.26C21.9989 9.07959 21.9779 8.89979 21.95 8.721V8.721ZM10.95 8.721L10.925 8.553L10.899 8.559C10.7213 7.72804 10.312 6.96437 9.71834 6.35635C9.12471 5.74833 8.37107 5.32082 7.5446 5.12328C6.71813 4.92574 5.85261 4.96625 5.0482 5.24011C4.24379 5.51397 3.53336 6.00999 2.99912 6.67079C2.46487 7.33159 2.12863 8.13015 2.02932 8.97408C1.93001 9.818 2.07168 10.6728 2.43793 11.4396C2.80419 12.2063 3.38006 12.8537 4.09892 13.3068C4.81778 13.76 5.65025 14.0003 6.5 14C6.723 14 6.937 13.966 7.15 13.935C7.081 14.167 7.01 14.403 6.896 14.615C6.782 14.923 6.604 15.19 6.427 15.459C6.279 15.75 6.018 15.947 5.826 16.196C5.625 16.438 5.351 16.599 5.134 16.8C4.921 17.01 4.642 17.115 4.42 17.263C4.188 17.396 3.986 17.543 3.77 17.613L3.231 17.835C2.93 17.958 2.758 18.03 2.758 18.03L3.242 19.969L3.839 19.825C4.03 19.777 4.263 19.721 4.528 19.654C4.799 19.604 5.088 19.467 5.41 19.342C5.727 19.199 6.096 19.104 6.438 18.875C6.782 18.657 7.179 18.475 7.529 18.183C7.868 17.882 8.277 17.621 8.579 17.239C8.909 16.881 9.235 16.505 9.488 16.077C9.781 15.669 9.98 15.221 10.19 14.778C10.38 14.335 10.533 13.882 10.658 13.442C10.895 12.56 11.001 11.722 11.042 11.005C11.076 10.287 11.056 9.69 11.014 9.258C10.9991 9.0783 10.9777 8.89918 10.95 8.721V8.721Z" fill="currentColor"/>
</symbol>
<symbol id="eye" width="1em" height="1em" viewBox="0 0 16 16" fill="none">
<path d="M10.5 8C10.5 8.66304 10.2366 9.29893 9.76777 9.76777C9.29893 10.2366 8.66304 10.5 8 10.5C7.33696 10.5 6.70107 10.2366 6.23223 9.76777C5.76339 9.29893 5.5 8.66304 5.5 8C5.5 7.33696 5.76339 6.70107 6.23223 6.23223C6.70107 5.76339 7.33696 5.5 8 5.5C8.66304 5.5 9.29893 5.76339 9.76777 6.23223C10.2366 6.70107 10.5 7.33696 10.5 8V8Z" fill="currentColor"/>
<path d="M0 8C0 8 3 2.5 8 2.5C13 2.5 16 8 16 8C16 8 13 13.5 8 13.5C3 13.5 0 8 0 8ZM8 11.5C8.92826 11.5 9.8185 11.1313 10.4749 10.4749C11.1313 9.8185 11.5 8.92826 11.5 8C11.5 7.07174 11.1313 6.1815 10.4749 5.52513C9.8185 4.86875 8.92826 4.5 8 4.5C7.07174 4.5 6.1815 4.86875 5.52513 5.52513C4.86875 6.1815 4.5 7.07174 4.5 8C4.5 8.92826 4.86875 9.8185 5.52513 10.4749C6.1815 11.1313 7.07174 11.5 8 11.5V11.5Z" fill="currentColor"/>
</symbol>
<symbol id="eye-slash" width="1em" height="1em" viewBox="0 0 16 16" fill="none">
<path d="M10.79 12.912L9.176 11.297C8.55184 11.5202 7.87715 11.5615 7.23042 11.4162C6.58369 11.2709 5.99153 10.9449 5.52282 10.4762C5.05411 10.0075 4.72814 9.41531 4.58283 8.76858C4.43752 8.12185 4.47885 7.44716 4.702 6.823L2.642 4.763C0.938 6.278 0 8 0 8C0 8 3 13.5 8 13.5C8.96041 13.4967 9.90995 13.2966 10.79 12.912V12.912ZM5.21 3.088C6.09005 2.70342 7.03959 2.50331 8 2.5C13 2.5 16 8 16 8C16 8 15.061 9.721 13.359 11.238L11.297 9.176C11.5202 8.55184 11.5615 7.87715 11.4162 7.23042C11.2709 6.58369 10.9449 5.99153 10.4762 5.52282C10.0075 5.05411 9.41531 4.72814 8.76858 4.58283C8.12185 4.43752 7.44716 4.47885 6.823 4.702L5.21 3.088Z" fill="currentColor"/>
<path d="M5.525 7.646C5.46999 8.03031 5.50524 8.42215 5.62796 8.79047C5.75068 9.15879 5.95749 9.49347 6.23201 9.76799C6.50653 10.0425 6.8412 10.2493 7.20953 10.372C7.57785 10.4948 7.96969 10.53 8.354 10.475L5.524 7.646H5.525ZM10.475 8.354L7.646 5.524C8.03031 5.46899 8.42215 5.50424 8.79047 5.62696C9.15879 5.74968 9.49347 5.95649 9.76799 6.23101C10.0425 6.50553 10.2493 6.8402 10.372 7.20853C10.4948 7.57685 10.53 7.96869 10.475 8.353V8.354ZM13.646 14.354L1.646 2.354L2.354 1.646L14.354 13.646L13.646 14.353V14.354Z" fill="currentColor"/>
</symbol>
<symbol id="star" width="1em" height="1em" viewBox="0 0 16 16" fill="none">
<path d="M14.1891 5.51721L10.2219 4.94064L8.44847 1.34533C8.40003 1.24689 8.32034 1.16721 8.2219 1.11877C7.97503 0.996893 7.67503 1.09846 7.55159 1.34533L5.77815 4.94064L1.81097 5.51721C1.70159 5.53283 1.60159 5.58439 1.52503 5.66252C1.43247 5.75765 1.38146 5.88564 1.38322 6.01836C1.38498 6.15109 1.43936 6.27768 1.5344 6.37033L4.40472 9.16877L3.72659 13.1203C3.71069 13.2123 3.72086 13.3068 3.75595 13.3932C3.79105 13.4797 3.84966 13.5545 3.92514 13.6094C4.00062 13.6642 4.08995 13.6968 4.183 13.7034C4.27605 13.71 4.3691 13.6904 4.45159 13.6469L8.00003 11.7813L11.5485 13.6469C11.6453 13.6985 11.7578 13.7156 11.8657 13.6969C12.1375 13.65 12.3203 13.3922 12.2735 13.1203L11.5953 9.16877L14.4657 6.37033C14.5438 6.29377 14.5953 6.19377 14.611 6.08439C14.6532 5.81096 14.4625 5.55783 14.1891 5.51721V5.51721Z" fill="currentColor"/>
</symbol>
</svg>
